<svg width="433" height="637" viewBox="0 0 433 637" fill="none" xmlns="http://www.w3.org/2000/svg">
<g clip-path="url(#clip0_111_2)">
<path fill-rule="evenodd" clip-rule="evenodd" d="M345.259 340.346C348.407 342.111 351.02 343.316 353.482 344.139L357.102 345.35L353.697 347.076C351.384 348.248 349.185 349.743 346.974 351.646L345.267 353.116L344.444 351.021C343.362 348.269 342.835 345.139 342.879 341.717L342.914 339.031L345.259 340.346ZM194.035 349.234C196.982 354.55 200.538 359.784 203.978 364.846C211.569 376.017 219.419 387.568 221.836 401.382C222.024 402.527 222.158 405.116 222.239 409.147L219.989 408.231C212.475 405.171 204.503 402.894 196.793 400.693C193.813 399.842 190.732 398.962 187.712 398.047C186.482 397.718 185.259 397.334 184.076 396.962C181.205 396.059 178.493 395.207 175.642 395.061L174.774 395.017L174.339 394.265C170.411 387.461 173.357 380.976 176.73 374.916C178.757 370.498 181.363 366.348 183.885 362.333C186.498 358.172 189.2 353.869 191.174 349.366L192.47 346.41L194.035 349.234ZM339.03 405.594C334.564 410.274 330.415 415.029 326.699 419.728L323.878 418.431C325.242 411.491 329.476 406.602 337.204 403.043L339.03 405.594ZM189.62 510.148C190.067 510.148 190.486 510.322 190.801 510.636C191.119 510.956 191.294 511.386 191.293 511.847L189.62 511.842V510.148ZM375.467 625.862C378.091 621.359 378.477 614.288 374.544 610.455C375.867 602.176 373.269 592.924 367.514 586.332L367.501 586.352C358.956 573.55 358.328 568.989 364.571 554.679C375.728 554.252 387.22 554.125 398.114 551.517L397.706 549.081C398.109 548.974 400.169 548.433 400.611 548.318C400.552 548.772 400.245 550.84 400.253 551.254C400.762 551.811 401.992 552.329 402.22 551.233C409.073 521.927 415.206 493.202 421.87 463.94C428.845 434.407 442.871 387.17 408.538 370.893L409.246 367.867C411.142 367.868 411.904 365.8 412.773 362.88C416.647 352.433 409.115 342.189 402.07 335.727C392.442 326.083 383.56 315.376 374.967 305.025C350.456 275.21 317.104 235.423 274.473 242.182L274.616 243.939C267.947 244.778 260.984 246.542 254.232 245.313C231.177 241.317 206.096 250.357 191.917 268.917L191.396 265.458C191.347 265.131 191.23 264.829 190.714 264.829C190.038 264.805 189.681 265.358 189.431 265.869C164.958 275.547 154.821 307.05 147 328.642C146.002 332.292 146.284 333.372 146.371 333.587L147.791 334.433C133.042 354.067 124.937 377.681 117.984 400.073C115.686 406.042 115.446 410.178 119.284 413.788C93.977 429.004 74.1189 452.716 85.3467 479.75C100 506.055 138.802 522.745 167.946 537.854C179.52 544.128 196.353 547.469 207.002 557.743C207.714 558.795 208.735 559.82 209.353 559.736C214.296 560.468 221.653 529.577 220.534 527.103C225.752 528.97 231.556 528.87 237.014 529.844C236.525 530.919 234.924 532.375 236.122 533.571C236.04 537.199 236.598 541.121 237.396 544.818C230.847 543.768 230.995 547.206 237.296 545.387C237.468 546.989 237.905 551.074 238.072 552.622C236.191 551.795 232.448 551.214 231.137 552.508C231.672 554.233 236.311 552.609 238.098 553.12C239.143 560.876 239.484 568.5 240.217 576.235C234.641 581.549 225.931 582.805 220.955 588.554C216.739 592.929 217.347 600.271 222.293 603.79C219.264 607.346 221.688 613.247 226.112 614.211C232.138 615.619 238.437 613.673 244.379 612.037C254.256 608.783 264.601 603.709 276.001 596.527C280.511 593.717 283.87 589.3 285.467 584.088C297.033 548.419 300.124 524.182 294.664 512.017C291.549 509.662 288.076 511.116 285.199 509.829C283.828 509.217 282.593 508.392 281.596 505.469C296.602 503.994 318.476 506.734 330.505 499.54L330.081 498.639C331.192 497.929 333.633 494.962 334.561 494.007C332.888 514.151 331.542 534.816 330.877 554.888C328.67 558.601 326.796 562.445 324.74 566.733C323.309 568.139 320.806 570.548 322.275 572.142C322.275 572.142 309.925 601.08 306.15 615.707C302.557 615.859 301.1 621.95 301.237 625.995C301.783 633.358 311.226 634.139 319.504 634.86C325.168 635.455 330.992 635.763 336.73 635.763C347.096 635.771 373.015 635.057 375.467 625.862Z" fill="white"/>
<path fill-rule="evenodd" clip-rule="evenodd" d="M325.008 252.872C307.413 241.18 284.57 235.024 264.164 242.679C263.922 242.764 264.018 243.118 264.271 243.062C267.496 242.355 270.771 241.959 274.065 241.823C267.389 242.638 260.91 244.39 254.149 243.209C231.568 239.48 207.622 247.141 192.619 264.689C192.231 262.111 189.027 262.206 187.983 264.029C168.03 271.058 156.729 297.462 149.192 315.786C148.307 319.052 142.157 332.615 145.11 334.375C131.054 353.632 123.146 376.433 116.128 398.987L115.927 399.536C114.334 403.95 113.119 408.946 116.492 412.874C102.496 421.431 89.5557 432.925 83.4383 448.499C73.6951 471.473 86.1104 490.937 105.468 503.384C124.652 517.274 145.435 528.839 166.919 538.769C174.144 542.105 181.458 545.235 188.816 548.268L189.548 548.567C195.327 550.943 201.159 553.736 205.483 558.308C213.889 570.576 221.654 533.829 221.739 528.707C225.682 529.892 230.023 529.919 234.093 530.538C233.576 531.423 233.536 532.575 234.165 533.519C234.155 536.517 234.473 539.539 235.059 542.509C228.814 541.955 229.03 548.254 235.541 546.802L235.866 549.847C232.893 548.927 226.615 550.398 230.293 553.941C232.219 554.892 234.271 554.015 236.324 554.116C237.209 561.078 237.546 568.044 238.193 575.036C232.615 579.884 224.333 581.169 219.381 586.989C215.053 591.72 214.945 599.122 219.899 603.575C217.238 608.119 220.455 614.037 225.377 615.231C231.721 616.738 238.364 614.729 244.486 613.034C255.619 609.37 266.154 603.83 276.065 597.616L276.496 597.346C281.4 594.289 284.95 589.531 286.637 584.023L286.998 582.906C292.988 564.304 303.643 527.816 295.65 510.581C291.884 506.409 285.814 511.267 283.619 506.352C297.778 505.244 320.592 507.709 332.129 499.62C330.996 515.892 329.316 532.153 329.383 548.472C329.671 550.618 328.22 551.961 328.803 554.127C326.697 557.726 324.879 561.478 323.075 565.235L322.961 565.341C321.088 567.114 318.68 570.713 321.145 572.823C312.758 585.099 308.209 599.587 304.491 613.837C300.537 614.742 299.043 622.096 299.288 625.611C300.398 635.057 311.608 635.118 318.974 635.915C323.278 636.368 327.594 636.65 331.919 636.767C340.668 637.003 349.43 636.54 358.108 635.402C365.177 634.783 372.993 632.936 376.514 626.096C379.353 621.185 379.796 613.817 375.869 609.411C377.017 600.972 374.326 592.176 369.068 585.522L368.908 585.321L368.922 585.316C369.042 585.263 369.031 585.064 368.539 584.964L368.485 584.954L368.249 584.589C360.523 572.627 359.56 569.347 365.292 555.704L370.501 555.518C380.153 555.165 389.906 554.657 399.247 552.26C400.57 553.361 402.897 553.234 403.417 551.074C410.211 522.029 416.446 492.85 423.071 463.763C429.957 433.152 444.794 386.682 408.889 368.931C412.556 368.932 413.373 364.537 414.265 361.763C417.532 350.985 410.332 341.025 402.801 334.027C376.365 307.518 356.474 274.121 325.008 252.872ZM375.425 612.656C375.921 626.926 365.109 630.349 352.939 630.713C345.355 631.434 337.715 631.654 330.102 631.357L326.516 631.149C320.527 630.797 314.493 630.357 308.664 628.992C304.825 628.204 303.863 624.774 305.25 621.422C305.849 621.688 306.557 621.707 307.111 621.319C307.732 620.885 308.181 620.425 308.523 619.882C328.244 628.648 353.059 627.688 372.17 617.603C374.62 617.483 374.937 614.561 375.425 612.656ZM327.485 567.485C334.652 563.154 349.168 561.272 356.092 566.721C355.617 569.459 356.727 571.992 357.767 574.432C354.608 573.679 327.129 569.98 331.011 576.727C333.183 578.477 336.142 577.273 338.653 577.036C345.388 576.476 352.17 576.654 358.885 577.416C359.47 579.056 359.697 580.894 360.425 582.44C353.623 580.199 346.508 579.126 339.372 578.743L338.975 578.722C335.86 578.557 332.214 577.868 329.895 580.411C327.918 583.111 332.305 584.969 334.565 584.704C344.191 584.416 353.837 584.772 363.455 585.186L363.878 585.882C370.674 597.121 372.137 601.547 369.39 615.025C369.406 615.012 369.422 615.002 369.436 614.988C369.446 615.717 369.68 616.374 370.179 616.863C349.453 623.582 330.149 623.2 309.553 616.536C312.565 601.427 318.541 587.155 322.984 572.464C324.157 571.808 324.505 570.358 325.384 569.399C326.272 569.324 327.152 568.623 327.485 567.485ZM277.817 506.52C286.847 512.898 282.769 520.435 280.272 529.096C276.622 541.827 273.819 554.797 270.696 567.662C268.856 579.09 261.623 589.001 251.215 594.141C246.533 596.605 241.397 598.199 236.148 598.854C234.122 599.06 231.876 598.843 230.519 600.657C229.749 601.49 229.664 602.857 230.519 603.674C233.203 606.713 241.004 603.971 244.624 603.213C271.442 595.093 275.518 575.683 280.691 551.348C283.198 537.832 289.357 523.597 285.641 509.889C287.888 511.09 291.341 510.678 292.935 512.946C296.615 536.234 288.498 559.86 282.242 582.124C280.854 586.802 277.921 590.916 273.655 593.372C264.554 598.924 255.015 603.997 244.922 607.501L244.616 607.588C239.494 609.056 228.429 613.017 224.498 608.876C223.678 607.666 223.715 606.371 224.748 605.567L225.249 605.377C226.211 605.006 227.343 604.483 227.518 603.36L227.529 603.283L227.492 603.269C228.327 601.737 226.705 600.022 225.252 599.647C223.204 599.573 222.252 598.21 221.523 596.21C220.218 586.42 233.98 583.804 238.542 577.105C239.026 579.55 242.794 579.084 242.774 576.618C242.923 569.127 241.293 561.568 240.177 554.178C241.894 554.104 243.719 554.798 245.391 554.422C245.638 552.879 240.815 551.262 239.487 550.752C239.213 549.475 238.923 548.204 238.614 546.938C249.342 547.585 244.359 544.149 237.584 542.972C237.373 542.254 237.188 541.517 237.019 540.788L236.936 540.424C236.508 538.597 236.281 536.87 236.207 535.086C240.95 537.257 246.286 538.574 251.425 537.469C260.712 535.314 265.526 524.053 261.798 515.603C262.646 512.605 260.981 509.418 259.475 506.889C265.589 506.868 271.706 506.7 277.817 506.52ZM368.607 585.1C368.687 585.148 368.763 585.202 368.836 585.261L368.908 585.321L368.89 585.326C368.802 585.344 368.674 585.294 368.597 585.108C368.613 585.124 368.613 585.116 368.607 585.1ZM368.043 584.911C368.189 584.916 368.314 584.928 368.422 584.944L368.485 584.954L368.505 584.985C368.543 585.042 368.566 585.066 368.594 585.106C368.439 584.981 368.229 584.922 368.043 584.911ZM356.957 575.985C357.457 576.051 357.957 576.111 358.459 576.174L358.558 576.443C358.025 576.283 357.493 576.131 356.957 575.985ZM334.763 554.324C343.685 555.231 352.677 554.672 361.602 555.686C359.852 558.1 358.603 560.773 357.556 563.593C350.226 556.679 338.467 558.794 329.647 561.34C330.241 559.609 330.787 557.861 331.277 556.098C332.597 556.31 334.103 555.57 334.763 554.324ZM117.145 413.72C129.341 426.134 147.773 429.547 163.548 435.027C167.378 437.424 165.506 442.172 165.018 445.778C164.104 451.697 163.379 457.645 162.853 463.612C160.904 461.361 155.799 461.066 152.942 460.151L152.561 460.066C148.75 459.192 144.789 457.882 140.9 458.731C139.332 459.072 139.225 461.24 140.472 462.011C143.628 463.969 147.49 464.025 151.109 464.454L152.034 464.564C155.237 464.945 158.464 465.293 161.681 465.157C162.086 465.221 162.494 465.067 162.749 464.793C162.348 471.031 161.545 477.357 161.817 483.605C161.966 484.715 162.323 485.922 163.111 486.744L163.137 486.839C163.583 488.417 165.035 491.234 166.706 489.148L167.02 488.585C169.474 484.161 171.801 479.535 172.988 474.594C173.383 484.585 173.702 494.571 174.101 504.56L174.114 504.799C174.216 506.495 174.547 508.534 175.651 509.839C175.553 510.614 176.249 511.066 176.87 510.789L176.953 510.827C177.548 511.093 178.506 511.339 178.87 510.613C180.966 505.716 183.197 500.897 185.242 495.987C185.134 498.507 185.256 501.032 185.176 503.554C185.136 506.432 184.6 509.815 185.975 512.477C187.148 514.81 190.071 515.42 191.639 513.39C192.896 511.452 193.608 509.056 194.751 507.001C197.973 522.906 206.131 499.526 207.629 494.707C212.233 497.396 217.087 499.668 222.107 501.485C220.726 503.574 221.06 506.414 220.626 508.815C220.235 512.395 219.926 515.978 219.617 519.566L219.503 520.253C217.623 531.475 214.884 542.946 208.856 552.715C203.753 547.723 197.058 544.778 190.51 542.134C182.625 538.886 174.804 535.49 167.09 531.859C146.238 522.065 126.16 510.582 107.444 497.141L106.808 496.696C96.407 489.384 85.5684 479.797 85.3023 466.155C84.4051 443.79 103.126 428.534 117.145 413.72ZM346.98 401.043C364.785 384.356 392.045 362.781 416.636 378.634C439.606 398.054 421.407 444.618 416.715 469.695C410.749 496.054 404.443 522.341 398.594 548.725C377.738 551.474 356.568 552.915 335.609 550.438C335.846 531.835 337.103 513.256 337.513 494.646C337.895 485.058 337.763 475.433 339.201 465.936C340.422 458.215 338.854 448.887 343.159 442.142C344.752 439.686 347.343 437.536 347.922 434.575C347.935 434.437 347.755 434.391 347.667 434.469C346.407 435.575 345.395 436.894 344.059 437.956L343.076 438.716C341.477 439.959 339.885 441.286 338.895 443.054C338.793 442.301 340.701 435.585 339.559 436.386L339.343 436.975C337.807 441.197 336.422 445.469 336.027 449.986C334.519 465.382 333.676 480.855 332.385 496.274C329.27 497.677 326.407 499.739 323.006 500.484C317.434 501.035 311.855 500.724 306.274 500.65L305.75 500.644C289.466 500.401 273.232 501.315 256.959 501.057C240.325 501.702 223.322 497.348 209.126 488.603C216.904 453.509 190.198 428.479 177.85 398.479C192.074 402.064 206.229 405.913 220.414 409.69C218.499 414.366 224.69 427.615 227.02 432.311C239.487 456.865 264.698 472.912 287.368 449.478C287.358 449.55 287.35 449.621 287.342 449.696C288.103 449.002 288.944 448.391 289.792 447.805C290.931 457.142 294.01 466.554 299.823 474.052L300.457 474.846C302.27 477.105 304.895 480.075 307.798 478.368C309.936 477.213 310.338 474.966 309.923 472.698C316.907 480.291 324.516 482.006 319.744 468.94L319.902 469.103C322.573 471.844 329.663 477.9 330.385 470.74C330.07 467.175 327.872 463.993 326.755 460.654C327.948 461.391 329.29 461.755 330.656 461.231C334.32 459.827 332.435 455.641 331.618 453.005C329.548 446.342 327.437 439.69 325.29 433.051C326.034 429.104 323.678 425.177 325.887 421.747C326.832 422.242 328.105 422.138 329.018 420.92C334.376 413.791 340.525 407.187 346.98 401.043ZM398.347 549.935C398.341 549.975 398.341 550.01 398.339 550.05C398.133 550.063 397.931 550.081 397.726 550.1C397.935 550.05 398.141 549.989 398.347 549.935ZM222.461 524.308C225.748 490.502 217.22 506.423 251.854 506.807C251.698 507.653 252.812 507.556 252.419 507.32C252.92 505.452 255.764 510.927 256.16 511.637C256.908 513.222 257.249 515.196 257.512 516.93C259.368 526.642 252.452 535.15 242.366 531.021C243.664 530.913 245.123 531.382 246.201 530.553C246.195 530.551 246.193 530.545 246.188 530.54C247.152 528.813 241.861 528.738 240.808 528.277C236.707 527.421 232.596 526.625 228.519 525.665C226.533 525.197 224.498 524.463 222.461 524.308ZM189.165 511.246C189.46 511.073 189.309 511.64 189.21 511.352C189.197 511.315 189.178 511.281 189.165 511.246ZM151.871 330.737C166.694 331.794 176.291 339.109 186.811 348.488C187.596 349.167 188.393 349.832 189.207 350.475C184.611 358.527 179.655 366.366 174.865 374.307L173.968 375.8C172.571 378.13 171.206 380.501 170.375 383.095C167.542 392.051 177.436 407.815 181.031 416.609C198.236 446.943 214.397 468.003 198.743 503.932C197.903 501.664 199.759 493.749 196.983 493.441L197.039 492.879C197.926 483.746 197.966 472.746 195.196 464.681C196.729 480.286 195.068 496.641 189.149 511.209C187.6 497.398 189.652 481.969 189.175 467.782C189.194 465.601 185.892 465.625 185.799 467.782L185.686 471.445C185.299 483.859 184.631 496.858 177.406 507.36C176.71 491.374 179.628 474.534 174.021 459.207C173.563 458.103 171.912 458.189 171.864 459.5C171.761 464.717 169.553 482.378 165.742 485.441C164.695 482.246 164.802 478.751 164.97 475.405C165.489 463.28 167.239 451.449 169.387 439.493C169.776 437.131 169.08 434.223 166.632 433.312C164.813 431.583 162.302 430.357 160.224 429.373C147.025 422.857 128.866 424.112 119.938 410.693L119.505 410.04C118.464 408.466 117.488 406.912 117.049 405.025C118.252 400.534 119.982 396.158 121.451 391.75C122.764 387.855 124.112 383.973 125.525 380.114L125.999 378.828C132.31 361.616 140.345 345.094 151.871 330.737ZM254.08 506.863C254.418 506.972 254.685 507.31 254.973 507.562L255.035 507.614L254.859 507.475C254.673 507.325 254.505 507.185 254.247 506.988L254.08 506.863ZM332.254 497.995L332.174 499.038C331.663 499.142 331.162 499.272 330.661 499.399C331.242 498.979 331.782 498.514 332.254 497.995ZM256.735 474.442C256.794 474.238 256.501 474.118 256.391 474.298C252.083 481.87 243.603 484.884 235.437 486.084C234.047 486.409 234.218 488.327 235.437 488.731C240.002 490.242 245.271 488.207 249.007 485.497C252.837 482.722 255.449 478.975 256.735 474.442ZM174.604 470.12C175.412 475.948 175.339 481.893 175.408 487.776C175.142 481.893 174.921 476.004 174.604 470.12ZM293.541 480.384C292.694 480.677 291.818 480.869 290.956 480.943C291.871 481.379 292.918 481.161 293.541 480.384ZM359.967 291.915C372.916 306.562 384.253 322.595 398.181 336.36C406.342 343.728 414.063 353.797 407.698 364.886C406.356 365.415 406.12 367.39 407.278 368.32C407.001 368.284 405.225 367.424 405.624 368.128C409.192 369.65 412.329 371.855 415.032 374.522C398.192 362.148 375.863 372.055 361.176 383.145C353.927 388.436 347.187 394.266 340.876 400.541C338.618 400.945 336.283 402.15 334.401 403.091C321.418 409.321 319.383 417.74 320.455 431.197C324.351 438.617 326.194 447.101 328.909 455.056C331.702 461.239 326.208 457.072 325.421 454.374C323.509 451.998 322.587 448.839 321.415 446.076L321.331 445.879C320.998 445.089 320.284 444.501 319.366 444.765C318.628 444.976 317.944 445.887 318.23 446.676L318.818 448.19C321.667 455.502 324.609 462.853 326.877 470.346C319.214 465.761 315.419 457.083 311.396 449.419C310.29 447.382 307.316 449.177 308.312 451.22C309.236 453.106 310.179 454.986 311.177 456.835C313.787 462.39 315.679 468.251 317.246 474.179C308.632 469.047 305.629 458.591 303.152 449.768C302.999 447.251 299.365 447.746 299.74 450.217C300.662 455.122 302.068 459.955 304.267 464.447L304.849 467.844C305.236 470.109 305.619 472.374 305.985 474.642C305.777 474.541 305.553 474.528 305.338 474.581C297.706 466.904 294.651 456.312 291.986 446.132C293.253 441.826 291.703 437.423 291.88 432.984C291.206 427.301 293.041 422.005 295.582 416.931C297.105 401.233 312.24 394.424 322.793 385.197C335.718 372.438 342.514 352.902 360.68 346.579C362.569 346.699 364.39 346.293 366.158 345.685C366.235 345.664 366.248 345.531 366.158 345.517C364.36 345.224 362.562 344.765 360.76 344.437C360.274 342.855 358.332 342.662 356.872 343.369C341.164 336.492 328.144 324.398 315.661 312.892C327.849 301.63 343.63 294.637 359.967 291.915ZM287.685 451.568C287.424 451.858 287.196 452.172 287.025 452.515C286.978 452.603 286.984 452.708 286.969 452.805C287.193 452.385 287.43 451.97 287.685 451.568ZM337.516 403.961C333.176 408.509 329.01 413.248 325.088 418.207C326.495 411.05 331.101 406.914 337.516 403.961ZM192.28 349.475C201.702 366.477 216.455 381.411 219.905 401.125C220.182 402.812 220.201 404.52 220.235 406.222C209.717 401.938 198.644 399.269 187.793 395.981C183.681 394.884 179.687 393.156 175.366 392.936C171.805 386.768 174.665 380.731 177.8 375.105C181.884 366.174 188.345 358.45 192.28 349.475ZM344.12 341.206C346.844 342.733 349.654 344.13 352.617 345.121C350.066 346.414 347.733 348.047 345.573 349.906C344.488 347.146 344.082 344.156 344.12 341.206ZM274.85 243.198C276.265 255.653 276.196 268.505 272.885 280.661C267.947 299.606 249.665 317.317 228.98 313.603C208.109 309.246 197.851 287.654 193.548 268.668C204.539 254.738 221.744 246.025 239.477 245.323C251.007 244.852 264.042 248.565 274.85 243.198Z" fill="black"/>
<path fill-rule="evenodd" clip-rule="evenodd" d="M185.554 195.774C187.91 185.85 193.061 176.615 201.309 169.152C226.127 144.639 271.704 157.944 271.498 194.883C272.388 199.197 272.749 203.634 272.455 208.034C272.333 209.911 271.519 212.531 272.612 214.22C275.077 217.381 276.509 219.711 275.67 223.916C274.969 227.587 272.469 230.188 269.093 231.571C267.069 232.151 265.149 233.415 264.399 235.342C259.893 243.583 256.555 250.437 249.452 256.053C247.62 257.499 228.821 266.171 222.627 266.171C204.494 266.171 181.639 259.609 181.259 239.374C181.194 234.929 181.975 230.433 182.464 226.024C183.656 215.961 183.236 205.534 185.554 195.774Z" fill="white"/>
<path fill-rule="evenodd" clip-rule="evenodd" d="M185.962 190.81C185.956 190.687 185.78 190.66 185.746 190.781C185.072 193.17 184.69 195.604 184.163 198.03C183.655 200.367 183.176 202.71 182.777 205.068C182.024 209.517 181.39 213.978 180.8 218.45L180.653 219.569C179.628 227.438 177.935 235.637 179.415 243.552C180.679 250.307 184.915 255.751 190.374 259.742C195.543 263.521 201.811 265.946 208.034 267.324C214.712 268.805 222.629 269.246 228.063 264.353C230.239 262.394 227.273 258.507 224.913 260.275C219.371 264.426 212.322 263.202 206.068 261.55L205.879 261.5C200.391 260.04 194.866 257.826 190.509 254.092C185.692 249.963 183.31 244.232 183.034 237.947C182.88 234.416 183.21 230.889 183.565 227.379L183.605 226.989C184.013 222.975 184.441 218.962 184.836 214.947C185.196 211.285 185.507 207.601 185.671 203.923L185.748 202.068C185.908 198.328 186.122 194.532 185.962 190.81ZM250.955 159.731C241.937 155.041 231.573 153.362 221.538 154.936C211.89 156.449 203.035 161.423 196.417 168.554C193.186 172.036 190.318 176.064 188.485 180.464C187.575 182.65 186.862 184.93 186.482 187.272C186.287 188.476 186.095 189.723 186.058 190.944C186.024 192.074 186.357 193.134 186.317 194.283C186.311 194.462 186.587 194.497 186.629 194.325C186.942 193.044 187.698 192.075 188.172 190.858C188.526 189.95 188.927 189.063 189.336 188.179L189.688 187.421C190.708 185.219 191.927 183.107 193.133 181.003C195.562 176.765 198.678 172.914 202.327 169.664C208.734 163.958 216.954 160.275 225.532 159.611C234.436 158.923 243.468 161.043 251.072 165.74C258.676 170.436 264.425 177.737 267.41 186.143C268.917 190.385 269.748 194.805 269.942 199.298C270.04 201.573 269.948 203.867 269.789 206.137L269.709 207.22C269.617 208.518 269.553 209.812 269.747 211.079C268.376 210.651 266.938 210.474 265.495 210.686C263.351 211 262.07 211.878 261.108 213.792C261.058 213.891 261.159 213.991 261.259 213.942C262.505 213.32 264.523 213.647 265.843 213.973C267.217 214.312 268.455 214.902 269.623 215.7C271.783 217.174 273.476 219.459 273.891 222.081C274.293 224.613 273.253 227.177 271.505 228.992C270.605 229.926 269.529 230.735 268.325 231.238C266.864 231.85 265.417 231.831 264.125 232.84C263.325 233.464 263.518 234.532 264.061 235.225C261.333 238.213 258.914 241.481 256.187 244.481C254.922 245.871 253.668 247.263 252.457 248.699L252.005 249.239C250.795 250.697 248.871 252.238 248.318 254.072C247.974 255.213 249.197 256.705 250.433 256.185C252.33 255.388 253.684 253.312 254.965 251.72L255.049 251.617C256.393 249.967 257.586 248.226 258.677 246.4L259.035 245.799C261.008 242.485 262.964 239.048 264.221 235.407C264.304 235.492 264.392 235.57 264.485 235.636C266.297 236.923 268.931 235.933 270.741 235.097C272.449 234.309 274.016 233.121 275.236 231.691C277.891 228.579 279.115 224.55 278.229 220.512C277.477 217.092 275.104 213.765 271.993 212.034C273.429 210.383 274.024 208.156 274.42 205.98C274.925 203.201 275.026 200.354 274.888 197.536C274.615 191.924 273.169 186.392 270.934 181.253C266.936 172.058 259.867 164.367 250.955 159.731ZM269.935 221.09C268.042 220.736 266.278 220.65 264.453 221.45C262.472 222.318 261.079 223.752 259.783 225.432C258.309 227.342 262.087 229.43 263.04 226.893L263.068 226.815C263.323 226.064 263.78 225.338 264.358 224.67C264.532 224.936 264.764 225.17 265.037 225.304C265.368 225.466 265.872 225.354 265.951 224.932C266.039 224.464 265.942 223.897 265.672 223.501L265.635 223.447C266.948 222.391 268.528 221.62 269.935 221.372C270.075 221.347 270.074 221.116 269.935 221.09Z" fill="black"/>
<path fill-rule="evenodd" clip-rule="evenodd" d="M204.364 223.382C202.398 224.575 199.403 227.359 201.518 230.319C204.007 232.928 207.591 229.936 209.358 228.583C210.995 227.534 212.836 230.232 211.316 231.456C198.553 240.896 193.373 223.694 203.37 221.978C204.47 221.789 204.879 223.012 204.364 223.382ZM222.127 200.614L221.638 200.528L221.387 200.486C219.923 200.244 218.187 200.082 217.176 201.231C216.609 201.875 216.414 203.071 217.176 203.688C218.517 204.772 220 204.352 221.608 204.444C222.932 204.52 224.206 204.739 225.481 205.103C228.281 205.903 230.562 207.362 232.952 208.964C233.266 209.174 233.586 208.773 233.437 208.48C232.057 205.78 229.382 203.561 226.703 202.209C225.273 201.487 223.709 200.889 222.127 200.614ZM209.178 237.922C204.9 238.232 195.629 236.192 191.779 239.252C177.271 257.351 234.789 262.004 228.577 241.981C224.621 235.506 215.521 238.108 209.178 237.922ZM209.911 248.848C210.969 248.762 212.253 249.599 212.564 250.246C212.874 250.893 212.754 252.26 212.745 252.497C210.895 252.684 209.029 252.712 207.174 252.59C207.656 250.998 207.672 249.089 209.911 248.848ZM201.37 251.52C201.668 249.543 203.083 249.075 204.228 249.371C205.4 249.675 206.088 251.022 206.013 252.222C206.009 252.305 206.056 252.375 206.088 252.442C204.495 252.254 202.917 251.944 201.37 251.52ZM214.49 249.206C215.157 248.192 216.751 247.703 217.772 247.881C219.439 248.232 219.636 250.348 219.636 250.779C218.099 251.365 216.468 251.753 214.908 252.063C214.595 252.125 214.281 252.18 213.966 252.232L213.946 251.975C213.908 251.425 213.879 250.134 214.49 249.206ZM195.633 249.039C197.343 246.397 201.017 248.288 200.713 251.174C200.387 251.071 200.062 250.964 199.738 250.851C198.395 250.384 196.922 249.828 195.633 249.039ZM209.089 239.936C211.389 239.73 213.275 239.799 214.775 240.077L214.82 240.578C214.986 242.313 215.2 244.019 214.288 244.717C213.547 245.284 211.089 245.23 209.44 244.819C209.033 244.717 208.504 241.118 209.089 239.936ZM205.534 239.73C205.902 241.44 206.076 243.516 205.336 244.133C204.554 244.784 202.039 244.696 201.381 244.262C200.806 243.882 200.82 242.136 201.034 240.175C202.308 239.876 204.526 239.73 205.534 239.73ZM215.792 240.094L216.545 240.101L216.971 240.107C218.048 240.126 219.211 240.188 220.31 240.427C222.493 245.141 214.52 245.955 215.751 240.269L215.792 240.094ZM200.02 240.208L200.034 240.475C200.099 241.799 200.056 243.543 199.321 244.013C198.241 244.706 196.212 244.572 195.113 241.368C195.477 240.413 199.334 240.278 200.02 240.208ZM221.18 212.102C220.718 212.102 220.277 212.259 219.875 212.548C219.479 212.833 219.121 213.249 218.822 213.768C218.258 214.75 217.905 216.106 217.905 217.606C217.905 219.105 218.258 220.461 218.822 221.443C219.121 221.962 219.479 222.378 219.875 222.663C220.277 222.953 220.718 223.109 221.18 223.109C221.642 223.109 222.083 222.953 222.485 222.663C222.881 222.378 223.239 221.962 223.538 221.443C224.102 220.461 224.455 219.105 224.455 217.606C224.455 216.106 224.102 214.75 223.538 213.768C223.239 213.249 222.881 212.833 222.485 212.548C222.083 212.259 221.642 212.102 221.18 212.102ZM191.959 212.102C191.497 212.102 191.056 212.259 190.653 212.548C190.258 212.833 189.899 213.249 189.601 213.768C189.036 214.75 188.683 216.106 188.683 217.606C188.683 219.105 189.036 220.461 189.601 221.443C189.899 221.962 190.258 222.378 190.653 222.663C191.056 222.953 191.497 223.109 191.959 223.109C192.42 223.109 192.862 222.953 193.264 222.663C193.66 222.378 194.018 221.962 194.316 221.443C194.881 220.461 195.234 219.105 195.234 217.606C195.234 216.106 194.881 214.75 194.316 213.768C194.018 213.249 193.66 212.833 193.264 212.548C192.862 212.259 192.42 212.102 191.959 212.102ZM195.934 199.404L195.56 199.481L195.312 199.533C191.277 200.4 186.161 202.11 184.272 206.024C184.199 206.589 184.276 206.71 184.339 206.789L184.36 206.815C184.412 206.883 184.454 206.976 184.699 207.053C184.767 207.037 184.836 207.019 184.905 207.001C185.789 206.77 186.488 206.451 187.165 206.12L187.899 205.759C188.75 205.342 189.609 204.94 190.52 204.644C192.462 204.011 194.461 203.565 196.49 203.326C196.93 203.275 197.353 203.127 197.687 202.872C198.004 202.631 198.247 202.297 198.357 201.853C198.5 201.279 198.459 200.844 198.151 200.325C197.919 199.936 197.587 199.666 197.205 199.511C196.817 199.353 196.374 199.316 195.934 199.404Z" fill="black"/>
</g>
<path d="M10.44 21.698C11.448 21.698 12.336 21.578 13.104 21.338C13.884 21.086 14.532 20.738 15.048 20.294C15.576 19.838 15.972 19.298 16.236 18.674C16.5 18.05 16.632 17.36 16.632 16.604C16.632 15.068 16.128 13.91 15.12 13.13C14.112 12.35 12.6 11.96 10.584 11.96H6.768V21.698H10.44ZM22.356 35H19.26C18.624 35 18.156 34.754 17.856 34.262L11.16 25.046C10.956 24.758 10.734 24.554 10.494 24.434C10.266 24.302 9.906 24.236 9.414 24.236H6.768V35H3.294V9.206H10.584C12.216 9.206 13.626 9.374 14.814 9.71C16.002 10.034 16.98 10.508 17.748 11.132C18.528 11.756 19.104 12.512 19.476 13.4C19.848 14.276 20.034 15.26 20.034 16.352C20.034 17.264 19.89 18.116 19.602 18.908C19.314 19.7 18.894 20.414 18.342 21.05C17.802 21.674 17.136 22.208 16.344 22.652C15.564 23.096 14.676 23.432 13.68 23.66C14.124 23.912 14.508 24.278 14.832 24.758L22.356 35ZM36.1522 23.894C36.1522 23.15 36.0442 22.472 35.8282 21.86C35.6242 21.236 35.3182 20.702 34.9102 20.258C34.5142 19.802 34.0282 19.454 33.4522 19.214C32.8762 18.962 32.2222 18.836 31.4902 18.836C29.9542 18.836 28.7362 19.286 27.8362 20.186C26.9482 21.074 26.3962 22.31 26.1802 23.894H36.1522ZM38.7442 32.444C38.3482 32.924 37.8742 33.344 37.3222 33.704C36.7702 34.052 36.1762 34.34 35.5402 34.568C34.9162 34.796 34.2682 34.964 33.5962 35.072C32.9242 35.192 32.2582 35.252 31.5982 35.252C30.3382 35.252 29.1742 35.042 28.1062 34.622C27.0502 34.19 26.1322 33.566 25.3522 32.75C24.5842 31.922 23.9842 30.902 23.5522 29.69C23.1202 28.478 22.9042 27.086 22.9042 25.514C22.9042 24.242 23.0962 23.054 23.4802 21.95C23.8762 20.846 24.4402 19.892 25.1722 19.088C25.9042 18.272 26.7982 17.636 27.8542 17.18C28.9102 16.712 30.0982 16.478 31.4182 16.478C32.5102 16.478 33.5182 16.664 34.4422 17.036C35.3782 17.396 36.1822 17.924 36.8542 18.62C37.5382 19.304 38.0722 20.156 38.4562 21.176C38.8402 22.184 39.0322 23.336 39.0322 24.632C39.0322 25.136 38.9782 25.472 38.8702 25.64C38.7622 25.808 38.5582 25.892 38.2582 25.892H26.0722C26.1082 27.044 26.2642 28.046 26.5402 28.898C26.8282 29.75 27.2242 30.464 27.7282 31.04C28.2322 31.604 28.8322 32.03 29.5282 32.318C30.2242 32.594 31.0042 32.732 31.8682 32.732C32.6722 32.732 33.3622 32.642 33.9382 32.462C34.5262 32.27 35.0302 32.066 35.4502 31.85C35.8702 31.634 36.2182 31.436 36.4942 31.256C36.7822 31.064 37.0282 30.968 37.2322 30.968C37.4962 30.968 37.7002 31.07 37.8442 31.274L38.7442 32.444ZM49.3217 26.09C49.9697 26.09 50.5397 26 51.0317 25.82C51.5237 25.64 51.9377 25.388 52.2737 25.064C52.6097 24.74 52.8617 24.356 53.0297 23.912C53.1977 23.456 53.2817 22.958 53.2817 22.418C53.2817 21.302 52.9397 20.414 52.2557 19.754C51.5837 19.094 50.6057 18.764 49.3217 18.764C48.0257 18.764 47.0357 19.094 46.3517 19.754C45.6797 20.414 45.3437 21.302 45.3437 22.418C45.3437 22.958 45.4277 23.456 45.5957 23.912C45.7757 24.356 46.0337 24.74 46.3697 25.064C46.7057 25.388 47.1197 25.64 47.6117 25.82C48.1037 26 48.6737 26.09 49.3217 26.09ZM55.0997 35.99C55.0997 35.546 54.9737 35.186 54.7217 34.91C54.4697 34.634 54.1277 34.418 53.6957 34.262C53.2757 34.106 52.7837 33.998 52.2197 33.938C51.6557 33.866 51.0557 33.812 50.4197 33.776C49.7957 33.74 49.1597 33.704 48.5117 33.668C47.8637 33.632 47.2397 33.572 46.6397 33.488C45.9677 33.8 45.4157 34.196 44.9837 34.676C44.5637 35.144 44.3537 35.696 44.3537 36.332C44.3537 36.74 44.4557 37.118 44.6597 37.466C44.8757 37.826 45.1997 38.132 45.6317 38.384C46.0637 38.648 46.6037 38.852 47.2517 38.996C47.9117 39.152 48.6857 39.23 49.5737 39.23C50.4377 39.23 51.2117 39.152 51.8957 38.996C52.5797 38.84 53.1557 38.618 53.6237 38.33C54.1037 38.042 54.4697 37.7 54.7217 37.304C54.9737 36.908 55.0997 36.47 55.0997 35.99ZM58.3577 17.486V18.674C58.3577 19.07 58.1057 19.322 57.6017 19.43L55.5317 19.7C55.9397 20.492 56.1437 21.368 56.1437 22.328C56.1437 23.216 55.9697 24.026 55.6217 24.758C55.2857 25.478 54.8177 26.096 54.2177 26.612C53.6177 27.128 52.8977 27.524 52.0577 27.8C51.2177 28.076 50.3057 28.214 49.3217 28.214C48.4697 28.214 47.6657 28.112 46.9097 27.908C46.5257 28.148 46.2317 28.406 46.0277 28.682C45.8237 28.946 45.7217 29.216 45.7217 29.492C45.7217 29.924 45.8957 30.254 46.2437 30.482C46.6037 30.698 47.0717 30.854 47.6477 30.95C48.2237 31.046 48.8777 31.106 49.6097 31.13C50.3537 31.154 51.1097 31.196 51.8777 31.256C52.6577 31.304 53.4137 31.394 54.1457 31.526C54.8897 31.658 55.5497 31.874 56.1257 32.174C56.7017 32.474 57.1637 32.888 57.5117 33.416C57.8717 33.944 58.0517 34.628 58.0517 35.468C58.0517 36.248 57.8537 37.004 57.4577 37.736C57.0737 38.468 56.5157 39.116 55.7837 39.68C55.0517 40.256 54.1517 40.712 53.0837 41.048C52.0277 41.396 50.8337 41.57 49.5017 41.57C48.1697 41.57 47.0057 41.438 46.0097 41.174C45.0137 40.91 44.1857 40.556 43.5257 40.112C42.8657 39.668 42.3677 39.152 42.0317 38.564C41.7077 37.988 41.5457 37.382 41.5457 36.746C41.5457 35.846 41.8277 35.084 42.3917 34.46C42.9557 33.836 43.7297 33.338 44.7137 32.966C44.1737 32.726 43.7417 32.408 43.4177 32.012C43.1057 31.604 42.9497 31.058 42.9497 30.374C42.9497 30.11 42.9977 29.84 43.0937 29.564C43.1897 29.276 43.3337 28.994 43.5257 28.718C43.7297 28.43 43.9757 28.16 44.2637 27.908C44.5517 27.656 44.8877 27.434 45.2717 27.242C44.3717 26.738 43.6697 26.072 43.1657 25.244C42.6617 24.404 42.4097 23.432 42.4097 22.328C42.4097 21.44 42.5777 20.636 42.9137 19.916C43.2617 19.184 43.7417 18.566 44.3537 18.062C44.9657 17.546 45.6917 17.15 46.5317 16.874C47.3837 16.598 48.3137 16.46 49.3217 16.46C50.1137 16.46 50.8517 16.55 51.5357 16.73C52.2197 16.898 52.8437 17.15 53.4077 17.486H58.3577ZM65.0548 16.766V35H61.8508V16.766H65.0548ZM65.7388 11.042C65.7388 11.354 65.6728 11.648 65.5408 11.924C65.4208 12.188 65.2528 12.428 65.0368 12.644C64.8328 12.848 64.5868 13.01 64.2988 13.13C64.0228 13.25 63.7288 13.31 63.4168 13.31C63.1048 13.31 62.8108 13.25 62.5348 13.13C62.2708 13.01 62.0368 12.848 61.8328 12.644C61.6288 12.428 61.4668 12.188 61.3468 11.924C61.2268 11.648 61.1668 11.354 61.1668 11.042C61.1668 10.73 61.2268 10.436 61.3468 10.16C61.4668 9.872 61.6288 9.626 61.8328 9.422C62.0368 9.206 62.2708 9.038 62.5348 8.918C62.8108 8.798 63.1048 8.738 63.4168 8.738C63.7288 8.738 64.0228 8.798 64.2988 8.918C64.5868 9.038 64.8328 9.206 65.0368 9.422C65.2528 9.626 65.4208 9.872 65.5408 10.16C65.6728 10.436 65.7388 10.73 65.7388 11.042ZM80.9393 19.772C80.7953 20.036 80.5733 20.168 80.2733 20.168C80.0933 20.168 79.8893 20.102 79.6613 19.97C79.4333 19.838 79.1513 19.694 78.8153 19.538C78.4913 19.37 78.1013 19.22 77.6453 19.088C77.1893 18.944 76.6493 18.872 76.0253 18.872C75.4853 18.872 74.9993 18.944 74.5673 19.088C74.1353 19.22 73.7633 19.406 73.4513 19.646C73.1513 19.886 72.9173 20.168 72.7493 20.492C72.5933 20.804 72.5153 21.146 72.5153 21.518C72.5153 21.986 72.6473 22.376 72.9113 22.688C73.1873 23 73.5473 23.27 73.9913 23.498C74.4353 23.726 74.9393 23.93 75.5033 24.11C76.0673 24.278 76.6433 24.464 77.2313 24.668C77.8313 24.86 78.4133 25.076 78.9773 25.316C79.5413 25.556 80.0453 25.856 80.4893 26.216C80.9333 26.576 81.2873 27.02 81.5513 27.548C81.8273 28.064 81.9653 28.688 81.9653 29.42C81.9653 30.26 81.8153 31.04 81.5153 31.76C81.2153 32.468 80.7713 33.086 80.1833 33.614C79.5953 34.13 78.8753 34.538 78.0233 34.838C77.1713 35.138 76.1873 35.288 75.0713 35.288C73.7993 35.288 72.6473 35.084 71.6153 34.676C70.5833 34.256 69.7073 33.722 68.9873 33.074L69.7433 31.85C69.8393 31.694 69.9533 31.574 70.0853 31.49C70.2173 31.406 70.3853 31.364 70.5893 31.364C70.8053 31.364 71.0333 31.448 71.2733 31.616C71.5133 31.784 71.8013 31.97 72.1373 32.174C72.4853 32.378 72.9053 32.564 73.3973 32.732C73.8893 32.9 74.5013 32.984 75.2333 32.984C75.8573 32.984 76.4033 32.906 76.8712 32.75C77.3393 32.582 77.7293 32.36 78.0413 32.084C78.3533 31.808 78.5813 31.49 78.7253 31.13C78.8813 30.77 78.9593 30.386 78.9593 29.978C78.9593 29.474 78.8213 29.06 78.5453 28.736C78.2813 28.4 77.9273 28.118 77.4833 27.89C77.0393 27.65 76.5293 27.446 75.9533 27.278C75.3893 27.098 74.8073 26.912 74.2073 26.72C73.6193 26.528 73.0373 26.312 72.4613 26.072C71.8973 25.82 71.3933 25.508 70.9493 25.136C70.5053 24.764 70.1453 24.308 69.8693 23.768C69.6053 23.216 69.4733 22.55 69.4733 21.77C69.4733 21.074 69.6173 20.408 69.9053 19.772C70.1933 19.124 70.6133 18.56 71.1653 18.08C71.7173 17.588 72.3953 17.198 73.1993 16.91C74.0033 16.622 74.9213 16.478 75.9533 16.478C77.1533 16.478 78.2273 16.67 79.1753 17.054C80.1353 17.426 80.9633 17.942 81.6593 18.602L80.9393 19.772ZM91.4915 35.288C90.0515 35.288 88.9415 34.886 88.1615 34.082C87.3935 33.278 87.0095 32.12 87.0095 30.608V19.448H84.8135C84.6215 19.448 84.4595 19.394 84.3275 19.286C84.1955 19.166 84.1295 18.986 84.1295 18.746V17.468L87.1175 17.09L87.8555 11.456C87.8915 11.276 87.9695 11.132 88.0895 11.024C88.2215 10.904 88.3895 10.844 88.5935 10.844H90.2135V17.126H95.4875V19.448H90.2135V30.392C90.2135 31.16 90.3995 31.73 90.7715 32.102C91.1435 32.474 91.6235 32.66 92.2115 32.66C92.5475 32.66 92.8355 32.618 93.0755 32.534C93.3275 32.438 93.5435 32.336 93.7235 32.228C93.9035 32.12 94.0535 32.024 94.1735 31.94C94.3055 31.844 94.4195 31.796 94.5155 31.796C94.6835 31.796 94.8335 31.898 94.9655 32.102L95.9015 33.632C95.3495 34.148 94.6835 34.556 93.9035 34.856C93.1235 35.144 92.3195 35.288 91.4915 35.288ZM108.678 26.792C107.202 26.84 105.942 26.96 104.898 27.152C103.866 27.332 103.02 27.572 102.36 27.872C101.712 28.172 101.238 28.526 100.938 28.934C100.65 29.342 100.506 29.798 100.506 30.302C100.506 30.782 100.584 31.196 100.74 31.544C100.896 31.892 101.106 32.18 101.37 32.408C101.646 32.624 101.964 32.786 102.324 32.894C102.696 32.99 103.092 33.038 103.512 33.038C104.076 33.038 104.592 32.984 105.06 32.876C105.528 32.756 105.966 32.588 106.374 32.372C106.794 32.156 107.19 31.898 107.562 31.598C107.946 31.298 108.318 30.956 108.678 30.572V26.792ZM98.3278 19.34C99.3358 18.368 100.422 17.642 101.586 17.162C102.75 16.682 104.04 16.442 105.456 16.442C106.476 16.442 107.382 16.61 108.174 16.946C108.966 17.282 109.632 17.75 110.172 18.35C110.712 18.95 111.12 19.676 111.396 20.528C111.672 21.38 111.81 22.316 111.81 23.336V35H110.388C110.076 35 109.836 34.952 109.668 34.856C109.5 34.748 109.368 34.544 109.272 34.244L108.912 32.516C108.432 32.96 107.964 33.356 107.508 33.704C107.052 34.04 106.572 34.328 106.068 34.568C105.564 34.796 105.024 34.97 104.448 35.09C103.884 35.222 103.254 35.288 102.558 35.288C101.85 35.288 101.184 35.192 100.56 35C99.9358 34.796 99.3898 34.496 98.9218 34.1C98.4658 33.704 98.0998 33.206 97.8238 32.606C97.5598 31.994 97.4278 31.274 97.4278 30.446C97.4278 29.726 97.6258 29.036 98.0218 28.376C98.4178 27.704 99.0598 27.11 99.9478 26.594C100.836 26.078 101.994 25.658 103.422 25.334C104.85 24.998 106.602 24.806 108.678 24.758V23.336C108.678 21.92 108.372 20.852 107.76 20.132C107.148 19.4 106.254 19.034 105.078 19.034C104.286 19.034 103.62 19.136 103.08 19.34C102.552 19.532 102.09 19.754 101.694 20.006C101.31 20.246 100.974 20.468 100.686 20.672C100.41 20.864 100.134 20.96 99.8578 20.96C99.6418 20.96 99.4558 20.906 99.2998 20.798C99.1438 20.678 99.0118 20.534 98.9038 20.366L98.3278 19.34ZM122.042 35.288C120.602 35.288 119.492 34.886 118.712 34.082C117.944 33.278 117.56 32.12 117.56 30.608V19.448H115.364C115.172 19.448 115.01 19.394 114.878 19.286C114.746 19.166 114.68 18.986 114.68 18.746V17.468L117.668 17.09L118.406 11.456C118.442 11.276 118.52 11.132 118.64 11.024C118.772 10.904 118.94 10.844 119.144 10.844H120.764V17.126H126.038V19.448H120.764V30.392C120.764 31.16 120.95 31.73 121.322 32.102C121.694 32.474 122.174 32.66 122.762 32.66C123.098 32.66 123.386 32.618 123.626 32.534C123.878 32.438 124.094 32.336 124.274 32.228C124.454 32.12 124.604 32.024 124.724 31.94C124.856 31.844 124.97 31.796 125.066 31.796C125.234 31.796 125.384 31.898 125.516 32.102L126.452 33.632C125.9 34.148 125.234 34.556 124.454 34.856C123.674 35.144 122.87 35.288 122.042 35.288ZM141.445 23.894C141.445 23.15 141.337 22.472 141.121 21.86C140.917 21.236 140.611 20.702 140.203 20.258C139.807 19.802 139.321 19.454 138.745 19.214C138.169 18.962 137.515 18.836 136.783 18.836C135.247 18.836 134.029 19.286 133.129 20.186C132.241 21.074 131.689 22.31 131.473 23.894H141.445ZM144.037 32.444C143.641 32.924 143.167 33.344 142.615 33.704C142.063 34.052 141.469 34.34 140.833 34.568C140.209 34.796 139.561 34.964 138.889 35.072C138.217 35.192 137.551 35.252 136.891 35.252C135.631 35.252 134.467 35.042 133.399 34.622C132.343 34.19 131.425 33.566 130.645 32.75C129.877 31.922 129.277 30.902 128.845 29.69C128.413 28.478 128.197 27.086 128.197 25.514C128.197 24.242 128.389 23.054 128.773 21.95C129.169 20.846 129.733 19.892 130.465 19.088C131.197 18.272 132.091 17.636 133.147 17.18C134.203 16.712 135.391 16.478 136.711 16.478C137.803 16.478 138.811 16.664 139.735 17.036C140.671 17.396 141.475 17.924 142.147 18.62C142.831 19.304 143.365 20.156 143.749 21.176C144.133 22.184 144.325 23.336 144.325 24.632C144.325 25.136 144.271 25.472 144.163 25.64C144.055 25.808 143.851 25.892 143.551 25.892H131.365C131.401 27.044 131.557 28.046 131.833 28.898C132.121 29.75 132.517 30.464 133.021 31.04C133.525 31.604 134.125 32.03 134.821 32.318C135.517 32.594 136.297 32.732 137.161 32.732C137.965 32.732 138.655 32.642 139.231 32.462C139.819 32.27 140.323 32.066 140.743 31.85C141.163 31.634 141.511 31.436 141.787 31.256C142.075 31.064 142.321 30.968 142.525 30.968C142.789 30.968 142.993 31.07 143.137 31.274L144.037 32.444ZM172.217 16.766L164.783 35H161.903L154.469 16.766H157.079C157.343 16.766 157.559 16.832 157.727 16.964C157.895 17.096 158.009 17.252 158.069 17.432L162.695 29.168C162.839 29.612 162.965 30.044 163.073 30.464C163.181 30.884 163.283 31.304 163.379 31.724C163.475 31.304 163.577 30.884 163.685 30.464C163.793 30.044 163.925 29.612 164.081 29.168L168.761 17.432C168.833 17.24 168.953 17.084 169.121 16.964C169.289 16.832 169.487 16.766 169.715 16.766H172.217ZM178.539 16.766V35H175.335V16.766H178.539ZM179.223 11.042C179.223 11.354 179.157 11.648 179.025 11.924C178.905 12.188 178.737 12.428 178.521 12.644C178.317 12.848 178.071 13.01 177.783 13.13C177.507 13.25 177.213 13.31 176.901 13.31C176.589 13.31 176.295 13.25 176.019 13.13C175.755 13.01 175.521 12.848 175.317 12.644C175.113 12.428 174.951 12.188 174.831 11.924C174.711 11.648 174.651 11.354 174.651 11.042C174.651 10.73 174.711 10.436 174.831 10.16C174.951 9.872 175.113 9.626 175.317 9.422C175.521 9.206 175.755 9.038 176.019 8.918C176.295 8.798 176.589 8.738 176.901 8.738C177.213 8.738 177.507 8.798 177.783 8.918C178.071 9.038 178.317 9.206 178.521 9.422C178.737 9.626 178.905 9.872 179.025 10.16C179.157 10.436 179.223 10.73 179.223 11.042ZM193.686 26.792C192.21 26.84 190.95 26.96 189.906 27.152C188.874 27.332 188.028 27.572 187.368 27.872C186.72 28.172 186.246 28.526 185.946 28.934C185.658 29.342 185.514 29.798 185.514 30.302C185.514 30.782 185.592 31.196 185.748 31.544C185.904 31.892 186.114 32.18 186.378 32.408C186.654 32.624 186.972 32.786 187.332 32.894C187.704 32.99 188.1 33.038 188.52 33.038C189.084 33.038 189.6 32.984 190.068 32.876C190.536 32.756 190.974 32.588 191.382 32.372C191.802 32.156 192.198 31.898 192.57 31.598C192.954 31.298 193.326 30.956 193.686 30.572V26.792ZM183.336 19.34C184.344 18.368 185.43 17.642 186.594 17.162C187.758 16.682 189.048 16.442 190.464 16.442C191.484 16.442 192.39 16.61 193.182 16.946C193.974 17.282 194.64 17.75 195.18 18.35C195.72 18.95 196.128 19.676 196.404 20.528C196.68 21.38 196.818 22.316 196.818 23.336V35H195.396C195.084 35 194.844 34.952 194.676 34.856C194.508 34.748 194.376 34.544 194.28 34.244L193.92 32.516C193.44 32.96 192.972 33.356 192.516 33.704C192.06 34.04 191.58 34.328 191.076 34.568C190.572 34.796 190.032 34.97 189.456 35.09C188.892 35.222 188.262 35.288 187.566 35.288C186.858 35.288 186.192 35.192 185.568 35C184.944 34.796 184.398 34.496 183.93 34.1C183.474 33.704 183.108 33.206 182.832 32.606C182.568 31.994 182.436 31.274 182.436 30.446C182.436 29.726 182.634 29.036 183.03 28.376C183.426 27.704 184.068 27.11 184.956 26.594C185.844 26.078 187.002 25.658 188.43 25.334C189.858 24.998 191.61 24.806 193.686 24.758V23.336C193.686 21.92 193.38 20.852 192.768 20.132C192.156 19.4 191.262 19.034 190.086 19.034C189.294 19.034 188.628 19.136 188.088 19.34C187.56 19.532 187.098 19.754 186.702 20.006C186.318 20.246 185.982 20.468 185.694 20.672C185.418 20.864 185.142 20.96 184.866 20.96C184.65 20.96 184.464 20.906 184.308 20.798C184.152 20.678 184.02 20.534 183.912 20.366L183.336 19.34ZM216.507 35.288C215.067 35.288 213.957 34.886 213.177 34.082C212.409 33.278 212.025 32.12 212.025 30.608V19.448H209.829C209.637 19.448 209.475 19.394 209.343 19.286C209.211 19.166 209.145 18.986 209.145 18.746V17.468L212.133 17.09L212.871 11.456C212.907 11.276 212.985 11.132 213.105 11.024C213.237 10.904 213.405 10.844 213.609 10.844H215.229V17.126H220.503V19.448H215.229V30.392C215.229 31.16 215.415 31.73 215.787 32.102C216.159 32.474 216.639 32.66 217.227 32.66C217.563 32.66 217.851 32.618 218.091 32.534C218.343 32.438 218.559 32.336 218.739 32.228C218.919 32.12 219.069 32.024 219.189 31.94C219.321 31.844 219.435 31.796 219.531 31.796C219.699 31.796 219.849 31.898 219.981 32.102L220.917 33.632C220.365 34.148 219.699 34.556 218.919 34.856C218.139 35.144 217.335 35.288 216.507 35.288ZM227.033 19.196C227.813 18.368 228.677 17.708 229.625 17.216C230.573 16.724 231.665 16.478 232.901 16.478C233.897 16.478 234.773 16.646 235.529 16.982C236.297 17.306 236.933 17.774 237.437 18.386C237.953 18.986 238.343 19.712 238.607 20.564C238.871 21.416 239.003 22.358 239.003 23.39V35H235.781V23.39C235.781 22.01 235.463 20.942 234.827 20.186C234.203 19.418 233.249 19.034 231.965 19.034C231.017 19.034 230.129 19.262 229.301 19.718C228.485 20.174 227.729 20.792 227.033 21.572V35H223.811V8.486H227.033V19.196ZM247.27 16.766V35H244.066V16.766H247.27ZM247.954 11.042C247.954 11.354 247.888 11.648 247.756 11.924C247.636 12.188 247.468 12.428 247.252 12.644C247.048 12.848 246.802 13.01 246.514 13.13C246.238 13.25 245.944 13.31 245.632 13.31C245.32 13.31 245.026 13.25 244.75 13.13C244.486 13.01 244.252 12.848 244.048 12.644C243.844 12.428 243.682 12.188 243.562 11.924C243.442 11.648 243.382 11.354 243.382 11.042C243.382 10.73 243.442 10.436 243.562 10.16C243.682 9.872 243.844 9.626 244.048 9.422C244.252 9.206 244.486 9.038 244.75 8.918C245.026 8.798 245.32 8.738 245.632 8.738C245.944 8.738 246.238 8.798 246.514 8.918C246.802 9.038 247.048 9.206 247.252 9.422C247.468 9.626 247.636 9.872 247.756 10.16C247.888 10.436 247.954 10.73 247.954 11.042ZM263.154 19.772C263.01 20.036 262.788 20.168 262.488 20.168C262.308 20.168 262.104 20.102 261.876 19.97C261.648 19.838 261.366 19.694 261.03 19.538C260.706 19.37 260.316 19.22 259.86 19.088C259.404 18.944 258.864 18.872 258.24 18.872C257.7 18.872 257.214 18.944 256.782 19.088C256.35 19.22 255.978 19.406 255.666 19.646C255.366 19.886 255.132 20.168 254.964 20.492C254.808 20.804 254.73 21.146 254.73 21.518C254.73 21.986 254.862 22.376 255.126 22.688C255.402 23 255.762 23.27 256.206 23.498C256.65 23.726 257.154 23.93 257.718 24.11C258.282 24.278 258.858 24.464 259.446 24.668C260.046 24.86 260.628 25.076 261.192 25.316C261.756 25.556 262.26 25.856 262.704 26.216C263.148 26.576 263.502 27.02 263.766 27.548C264.042 28.064 264.18 28.688 264.18 29.42C264.18 30.26 264.03 31.04 263.73 31.76C263.43 32.468 262.986 33.086 262.398 33.614C261.81 34.13 261.09 34.538 260.238 34.838C259.386 35.138 258.402 35.288 257.286 35.288C256.014 35.288 254.862 35.084 253.83 34.676C252.798 34.256 251.922 33.722 251.202 33.074L251.958 31.85C252.054 31.694 252.168 31.574 252.3 31.49C252.432 31.406 252.6 31.364 252.804 31.364C253.02 31.364 253.248 31.448 253.488 31.616C253.728 31.784 254.016 31.97 254.352 32.174C254.7 32.378 255.12 32.564 255.612 32.732C256.104 32.9 256.716 32.984 257.448 32.984C258.072 32.984 258.618 32.906 259.086 32.75C259.554 32.582 259.944 32.36 260.256 32.084C260.568 31.808 260.796 31.49 260.94 31.13C261.096 30.77 261.174 30.386 261.174 29.978C261.174 29.474 261.036 29.06 260.76 28.736C260.496 28.4 260.142 28.118 259.698 27.89C259.254 27.65 258.744 27.446 258.168 27.278C257.604 27.098 257.022 26.912 256.422 26.72C255.834 26.528 255.252 26.312 254.676 26.072C254.112 25.82 253.608 25.508 253.164 25.136C252.72 24.764 252.36 24.308 252.084 23.768C251.82 23.216 251.688 22.55 251.688 21.77C251.688 21.074 251.832 20.408 252.12 19.772C252.408 19.124 252.828 18.56 253.38 18.08C253.932 17.588 254.61 17.198 255.414 16.91C256.218 16.622 257.136 16.478 258.168 16.478C259.368 16.478 260.442 16.67 261.39 17.054C262.35 17.426 263.178 17.942 263.874 18.602L263.154 19.772ZM278.507 35V19.502L276.491 19.268C276.239 19.208 276.029 19.118 275.861 18.998C275.705 18.866 275.627 18.68 275.627 18.44V17.126H278.507V15.362C278.507 14.318 278.651 13.394 278.939 12.59C279.239 11.774 279.659 11.09 280.199 10.538C280.751 9.974 281.411 9.548 282.179 9.26C282.947 8.972 283.811 8.828 284.771 8.828C285.587 8.828 286.337 8.948 287.021 9.188L286.949 10.79C286.925 11.078 286.763 11.234 286.463 11.258C286.175 11.282 285.785 11.294 285.293 11.294C284.741 11.294 284.237 11.366 283.781 11.51C283.337 11.654 282.953 11.888 282.629 12.212C282.305 12.536 282.053 12.962 281.873 13.49C281.705 14.018 281.621 14.672 281.621 15.452V17.126H286.877V19.448H281.729V35H278.507ZM297.029 16.478C298.361 16.478 299.561 16.7 300.629 17.144C301.697 17.588 302.609 18.218 303.365 19.034C304.121 19.85 304.697 20.84 305.093 22.004C305.501 23.156 305.705 24.446 305.705 25.874C305.705 27.314 305.501 28.61 305.093 29.762C304.697 30.914 304.121 31.898 303.365 32.714C302.609 33.53 301.697 34.16 300.629 34.604C299.561 35.036 298.361 35.252 297.029 35.252C295.685 35.252 294.473 35.036 293.393 34.604C292.325 34.16 291.413 33.53 290.657 32.714C289.901 31.898 289.319 30.914 288.911 29.762C288.515 28.61 288.317 27.314 288.317 25.874C288.317 24.446 288.515 23.156 288.911 22.004C289.319 20.84 289.901 19.85 290.657 19.034C291.413 18.218 292.325 17.588 293.393 17.144C294.473 16.7 295.685 16.478 297.029 16.478ZM297.029 32.75C298.829 32.75 300.173 32.15 301.061 30.95C301.949 29.738 302.393 28.052 302.393 25.892C302.393 23.72 301.949 22.028 301.061 20.816C300.173 19.604 298.829 18.998 297.029 18.998C296.117 18.998 295.319 19.154 294.635 19.466C293.963 19.778 293.399 20.228 292.943 20.816C292.499 21.404 292.163 22.13 291.935 22.994C291.719 23.846 291.611 24.812 291.611 25.892C291.611 28.052 292.055 29.738 292.943 30.95C293.843 32.15 295.205 32.75 297.029 32.75ZM312.81 20.42C313.386 19.172 314.094 18.2 314.934 17.504C315.774 16.796 316.8 16.442 318.012 16.442C318.396 16.442 318.762 16.484 319.11 16.568C319.47 16.652 319.788 16.784 320.064 16.964L319.83 19.358C319.758 19.658 319.578 19.808 319.29 19.808C319.122 19.808 318.876 19.772 318.552 19.7C318.228 19.628 317.862 19.592 317.454 19.592C316.878 19.592 316.362 19.676 315.906 19.844C315.462 20.012 315.06 20.264 314.7 20.6C314.352 20.924 314.034 21.332 313.746 21.824C313.47 22.304 313.218 22.856 312.99 23.48V35H309.768V16.766H311.604C311.952 16.766 312.192 16.832 312.324 16.964C312.456 17.096 312.546 17.324 312.594 17.648L312.81 20.42ZM322.882 35V16.766H324.808C325.264 16.766 325.546 16.988 325.654 17.432L325.888 19.304C326.56 18.476 327.316 17.798 328.156 17.27C328.996 16.742 329.968 16.478 331.072 16.478C332.296 16.478 333.286 16.82 334.042 17.504C334.81 18.188 335.362 19.112 335.698 20.276C335.962 19.616 336.298 19.046 336.706 18.566C337.126 18.086 337.594 17.69 338.11 17.378C338.626 17.066 339.172 16.838 339.748 16.694C340.336 16.55 340.93 16.478 341.53 16.478C342.49 16.478 343.342 16.634 344.086 16.946C344.842 17.246 345.478 17.69 345.994 18.278C346.522 18.866 346.924 19.592 347.2 20.456C347.476 21.308 347.614 22.286 347.614 23.39V35H344.392V23.39C344.392 21.962 344.08 20.882 343.456 20.15C342.832 19.406 341.932 19.034 340.756 19.034C340.228 19.034 339.724 19.13 339.244 19.322C338.776 19.502 338.362 19.772 338.002 20.132C337.642 20.492 337.354 20.948 337.138 21.5C336.934 22.04 336.832 22.67 336.832 23.39V35H333.61V23.39C333.61 21.926 333.316 20.834 332.728 20.114C332.14 19.394 331.282 19.034 330.154 19.034C329.362 19.034 328.63 19.25 327.958 19.682C327.286 20.102 326.668 20.678 326.104 21.41V35H322.882ZM351.943 33.02C351.943 32.708 351.997 32.414 352.105 32.138C352.225 31.862 352.381 31.622 352.573 31.418C352.777 31.214 353.017 31.052 353.293 30.932C353.569 30.812 353.863 30.752 354.175 30.752C354.487 30.752 354.781 30.812 355.057 30.932C355.333 31.052 355.573 31.214 355.777 31.418C355.981 31.622 356.143 31.862 356.263 32.138C356.383 32.414 356.443 32.708 356.443 33.02C356.443 33.344 356.383 33.644 356.263 33.92C356.143 34.184 355.981 34.418 355.777 34.622C355.573 34.826 355.333 34.982 355.057 35.09C354.781 35.21 354.487 35.27 354.175 35.27C353.863 35.27 353.569 35.21 353.293 35.09C353.017 34.982 352.777 34.826 352.573 34.622C352.381 34.418 352.225 34.184 352.105 33.92C351.997 33.644 351.943 33.344 351.943 33.02ZM6.786 78H3.294V52.206H6.786V78ZM25.0608 73.608C25.6488 74.4 26.2908 74.958 26.9868 75.282C27.6828 75.606 28.4628 75.768 29.3268 75.768C31.0308 75.768 32.3388 75.162 33.2508 73.95C34.1628 72.738 34.6188 71.01 34.6188 68.766C34.6188 67.578 34.5108 66.558 34.2948 65.706C34.0908 64.854 33.7908 64.158 33.3948 63.618C32.9988 63.066 32.5128 62.664 31.9368 62.412C31.3608 62.16 30.7068 62.034 29.9748 62.034C28.9308 62.034 28.0128 62.274 27.2208 62.754C26.4408 63.234 25.7208 63.912 25.0608 64.788V73.608ZM24.8988 62.592C25.6668 61.644 26.5548 60.882 27.5628 60.306C28.5708 59.73 29.7228 59.442 31.0188 59.442C32.0748 59.442 33.0288 59.646 33.8808 60.054C34.7328 60.45 35.4588 61.044 36.0588 61.836C36.6588 62.616 37.1208 63.588 37.4448 64.752C37.7688 65.916 37.9308 67.254 37.9308 68.766C37.9308 70.11 37.7508 71.364 37.3908 72.528C37.0308 73.68 36.5088 74.682 35.8248 75.534C35.1528 76.374 34.3248 77.04 33.3408 77.532C32.3688 78.012 31.2708 78.252 30.0468 78.252C28.9308 78.252 27.9708 78.066 27.1668 77.694C26.3748 77.31 25.6728 76.782 25.0608 76.11V84.174H21.8388V59.766H23.7648C24.2208 59.766 24.5028 59.988 24.6108 60.432L24.8988 62.592ZM45.0605 63.42C45.6365 62.172 46.3445 61.2 47.1845 60.504C48.0245 59.796 49.0505 59.442 50.2625 59.442C50.6465 59.442 51.0125 59.484 51.3605 59.568C51.7205 59.652 52.0385 59.784 52.3145 59.964L52.0805 62.358C52.0085 62.658 51.8285 62.808 51.5405 62.808C51.3725 62.808 51.1265 62.772 50.8025 62.7C50.4785 62.628 50.1125 62.592 49.7045 62.592C49.1285 62.592 48.6125 62.676 48.1565 62.844C47.7125 63.012 47.3105 63.264 46.9505 63.6C46.6025 63.924 46.2845 64.332 45.9965 64.824C45.7205 65.304 45.4685 65.856 45.2405 66.48V78H42.0185V59.766H43.8545C44.2025 59.766 44.4425 59.832 44.5745 59.964C44.7065 60.096 44.7965 60.324 44.8445 60.648L45.0605 63.42ZM62.0795 59.478C63.4115 59.478 64.6115 59.7 65.6795 60.144C66.7475 60.588 67.6595 61.218 68.4155 62.034C69.1715 62.85 69.7475 63.84 70.1435 65.004C70.5515 66.156 70.7555 67.446 70.7555 68.874C70.7555 70.314 70.5515 71.61 70.1435 72.762C69.7475 73.914 69.1715 74.898 68.4155 75.714C67.6595 76.53 66.7475 77.16 65.6795 77.604C64.6115 78.036 63.4115 78.252 62.0795 78.252C60.7355 78.252 59.5235 78.036 58.4435 77.604C57.3755 77.16 56.4635 76.53 55.7075 75.714C54.9515 74.898 54.3695 73.914 53.9615 72.762C53.5655 71.61 53.3675 70.314 53.3675 68.874C53.3675 67.446 53.5655 66.156 53.9615 65.004C54.3695 63.84 54.9515 62.85 55.7075 62.034C56.4635 61.218 57.3755 60.588 58.4435 60.144C59.5235 59.7 60.7355 59.478 62.0795 59.478ZM62.0795 75.75C63.8795 75.75 65.2235 75.15 66.1115 73.95C66.9995 72.738 67.4435 71.052 67.4435 68.892C67.4435 66.72 66.9995 65.028 66.1115 63.816C65.2235 62.604 63.8795 61.998 62.0795 61.998C61.1675 61.998 60.3695 62.154 59.6855 62.466C59.0135 62.778 58.4495 63.228 57.9935 63.816C57.5495 64.404 57.2135 65.13 56.9855 65.994C56.7695 66.846 56.6615 67.812 56.6615 68.892C56.6615 71.052 57.1055 72.738 57.9935 73.95C58.8935 75.15 60.2555 75.75 62.0795 75.75ZM74.8193 78V59.766H76.7453C77.2013 59.766 77.4833 59.988 77.5913 60.432L77.8253 62.304C78.4973 61.476 79.2533 60.798 80.0933 60.27C80.9333 59.742 81.9053 59.478 83.0093 59.478C84.2333 59.478 85.2233 59.82 85.9793 60.504C86.7473 61.188 87.2993 62.112 87.6353 63.276C87.8993 62.616 88.2353 62.046 88.6433 61.566C89.0633 61.086 89.5313 60.69 90.0473 60.378C90.5633 60.066 91.1093 59.838 91.6853 59.694C92.2733 59.55 92.8673 59.478 93.4673 59.478C94.4273 59.478 95.2793 59.634 96.0233 59.946C96.7793 60.246 97.4153 60.69 97.9313 61.278C98.4593 61.866 98.8613 62.592 99.1373 63.456C99.4133 64.308 99.5513 65.286 99.5513 66.39V78H96.3293V66.39C96.3293 64.962 96.0173 63.882 95.3933 63.15C94.7693 62.406 93.8693 62.034 92.6933 62.034C92.1653 62.034 91.6613 62.13 91.1813 62.322C90.7133 62.502 90.2993 62.772 89.9393 63.132C89.5793 63.492 89.2913 63.948 89.0753 64.5C88.8713 65.04 88.7693 65.67 88.7693 66.39V78H85.5473V66.39C85.5473 64.926 85.2533 63.834 84.6653 63.114C84.0773 62.394 83.2193 62.034 82.0913 62.034C81.2993 62.034 80.5673 62.25 79.8953 62.682C79.2233 63.102 78.6053 63.678 78.0413 64.41V78H74.8193ZM107.805 59.766V78H104.601V59.766H107.805ZM108.489 54.042C108.489 54.354 108.423 54.648 108.291 54.924C108.171 55.188 108.003 55.428 107.787 55.644C107.583 55.848 107.337 56.01 107.049 56.13C106.773 56.25 106.479 56.31 106.167 56.31C105.855 56.31 105.561 56.25 105.285 56.13C105.021 56.01 104.787 55.848 104.583 55.644C104.379 55.428 104.217 55.188 104.097 54.924C103.977 54.648 103.917 54.354 103.917 54.042C103.917 53.73 103.977 53.436 104.097 53.16C104.217 52.872 104.379 52.626 104.583 52.422C104.787 52.206 105.021 52.038 105.285 51.918C105.561 51.798 105.855 51.738 106.167 51.738C106.479 51.738 106.773 51.798 107.049 51.918C107.337 52.038 107.583 52.206 107.787 52.422C108.003 52.626 108.171 52.872 108.291 53.16C108.423 53.436 108.489 53.73 108.489 54.042ZM123.689 62.772C123.545 63.036 123.323 63.168 123.023 63.168C122.843 63.168 122.639 63.102 122.411 62.97C122.183 62.838 121.901 62.694 121.565 62.538C121.241 62.37 120.851 62.22 120.395 62.088C119.939 61.944 119.399 61.872 118.775 61.872C118.235 61.872 117.749 61.944 117.317 62.088C116.885 62.22 116.513 62.406 116.201 62.646C115.901 62.886 115.667 63.168 115.499 63.492C115.343 63.804 115.265 64.146 115.265 64.518C115.265 64.986 115.397 65.376 115.661 65.688C115.937 66 116.297 66.27 116.741 66.498C117.185 66.726 117.689 66.93 118.253 67.11C118.817 67.278 119.393 67.464 119.981 67.668C120.581 67.86 121.163 68.076 121.727 68.316C122.291 68.556 122.795 68.856 123.239 69.216C123.683 69.576 124.037 70.02 124.301 70.548C124.577 71.064 124.715 71.688 124.715 72.42C124.715 73.26 124.565 74.04 124.265 74.76C123.965 75.468 123.521 76.086 122.933 76.614C122.345 77.13 121.625 77.538 120.773 77.838C119.921 78.138 118.937 78.288 117.821 78.288C116.549 78.288 115.397 78.084 114.365 77.676C113.333 77.256 112.457 76.722 111.737 76.074L112.493 74.85C112.589 74.694 112.703 74.574 112.835 74.49C112.967 74.406 113.135 74.364 113.339 74.364C113.555 74.364 113.783 74.448 114.023 74.616C114.263 74.784 114.551 74.97 114.887 75.174C115.235 75.378 115.655 75.564 116.147 75.732C116.639 75.9 117.251 75.984 117.983 75.984C118.607 75.984 119.153 75.906 119.621 75.75C120.089 75.582 120.479 75.36 120.791 75.084C121.103 74.808 121.331 74.49 121.475 74.13C121.631 73.77 121.709 73.386 121.709 72.978C121.709 72.474 121.571 72.06 121.295 71.736C121.031 71.4 120.677 71.118 120.233 70.89C119.789 70.65 119.279 70.446 118.703 70.278C118.139 70.098 117.557 69.912 116.957 69.72C116.369 69.528 115.787 69.312 115.211 69.072C114.647 68.82 114.143 68.508 113.699 68.136C113.255 67.764 112.895 67.308 112.619 66.768C112.355 66.216 112.223 65.55 112.223 64.77C112.223 64.074 112.367 63.408 112.655 62.772C112.943 62.124 113.363 61.56 113.915 61.08C114.467 60.588 115.145 60.198 115.949 59.91C116.753 59.622 117.671 59.478 118.703 59.478C119.903 59.478 120.977 59.67 121.925 60.054C122.885 60.426 123.713 60.942 124.409 61.602L123.689 62.772ZM140.847 66.894C140.847 66.15 140.739 65.472 140.523 64.86C140.319 64.236 140.013 63.702 139.605 63.258C139.209 62.802 138.723 62.454 138.147 62.214C137.571 61.962 136.917 61.836 136.185 61.836C134.649 61.836 133.431 62.286 132.531 63.186C131.643 64.074 131.091 65.31 130.875 66.894H140.847ZM143.439 75.444C143.043 75.924 142.569 76.344 142.017 76.704C141.465 77.052 140.871 77.34 140.235 77.568C139.611 77.796 138.963 77.964 138.291 78.072C137.619 78.192 136.953 78.252 136.293 78.252C135.033 78.252 133.869 78.042 132.801 77.622C131.745 77.19 130.827 76.566 130.047 75.75C129.279 74.922 128.679 73.902 128.247 72.69C127.815 71.478 127.599 70.086 127.599 68.514C127.599 67.242 127.791 66.054 128.175 64.95C128.571 63.846 129.135 62.892 129.867 62.088C130.599 61.272 131.493 60.636 132.549 60.18C133.605 59.712 134.793 59.478 136.113 59.478C137.205 59.478 138.213 59.664 139.137 60.036C140.073 60.396 140.877 60.924 141.549 61.62C142.233 62.304 142.767 63.156 143.151 64.176C143.535 65.184 143.727 66.336 143.727 67.632C143.727 68.136 143.673 68.472 143.565 68.64C143.457 68.808 143.253 68.892 142.953 68.892H130.767C130.803 70.044 130.959 71.046 131.235 71.898C131.523 72.75 131.919 73.464 132.423 74.04C132.927 74.604 133.527 75.03 134.223 75.318C134.919 75.594 135.699 75.732 136.563 75.732C137.367 75.732 138.057 75.642 138.633 75.462C139.221 75.27 139.725 75.066 140.145 74.85C140.565 74.634 140.913 74.436 141.189 74.256C141.477 74.064 141.723 73.968 141.927 73.968C142.191 73.968 142.395 74.07 142.539 74.274L143.439 75.444ZM160.258 59.766V78H157.054V59.766H160.258ZM160.942 54.042C160.942 54.354 160.876 54.648 160.744 54.924C160.624 55.188 160.456 55.428 160.24 55.644C160.036 55.848 159.79 56.01 159.502 56.13C159.226 56.25 158.932 56.31 158.62 56.31C158.308 56.31 158.014 56.25 157.738 56.13C157.474 56.01 157.24 55.848 157.036 55.644C156.832 55.428 156.67 55.188 156.55 54.924C156.43 54.648 156.37 54.354 156.37 54.042C156.37 53.73 156.43 53.436 156.55 53.16C156.67 52.872 156.832 52.626 157.036 52.422C157.24 52.206 157.474 52.038 157.738 51.918C158.014 51.798 158.308 51.738 158.62 51.738C158.932 51.738 159.226 51.798 159.502 51.918C159.79 52.038 160.036 52.206 160.24 52.422C160.456 52.626 160.624 52.872 160.744 53.16C160.876 53.436 160.942 53.73 160.942 54.042ZM171.12 78.288C169.68 78.288 168.57 77.886 167.79 77.082C167.022 76.278 166.638 75.12 166.638 73.608V62.448H164.442C164.25 62.448 164.088 62.394 163.956 62.286C163.824 62.166 163.758 61.986 163.758 61.746V60.468L166.746 60.09L167.484 54.456C167.52 54.276 167.598 54.132 167.718 54.024C167.85 53.904 168.018 53.844 168.222 53.844H169.842V60.126H175.116V62.448H169.842V73.392C169.842 74.16 170.028 74.73 170.4 75.102C170.772 75.474 171.252 75.66 171.84 75.66C172.176 75.66 172.464 75.618 172.704 75.534C172.956 75.438 173.172 75.336 173.352 75.228C173.532 75.12 173.682 75.024 173.802 74.94C173.934 74.844 174.048 74.796 174.144 74.796C174.312 74.796 174.462 74.898 174.594 75.102L175.53 76.632C174.978 77.148 174.312 77.556 173.532 77.856C172.752 78.144 171.948 78.288 171.12 78.288ZM212.043 59.766L206.139 78H203.601C203.289 78 203.073 77.796 202.953 77.388L198.921 65.022C198.825 64.746 198.747 64.47 198.687 64.194C198.627 63.906 198.567 63.624 198.507 63.348C198.447 63.624 198.387 63.906 198.327 64.194C198.267 64.47 198.189 64.752 198.093 65.04L193.989 77.388C193.881 77.796 193.641 78 193.269 78H190.857L184.953 59.766H187.473C187.725 59.766 187.935 59.832 188.103 59.964C188.283 60.096 188.403 60.252 188.463 60.432L191.955 72.168C192.159 73.032 192.321 73.848 192.441 74.616C192.549 74.22 192.657 73.818 192.765 73.41C192.885 73.002 193.011 72.588 193.143 72.168L196.995 60.36C197.055 60.18 197.157 60.03 197.301 59.91C197.457 59.79 197.643 59.73 197.859 59.73H199.263C199.503 59.73 199.701 59.79 199.857 59.91C200.013 60.03 200.121 60.18 200.181 60.36L203.943 72.168C204.075 72.588 204.195 73.002 204.303 73.41C204.411 73.818 204.513 74.22 204.609 74.616C204.669 74.22 204.741 73.824 204.825 73.428C204.921 73.02 205.023 72.6 205.131 72.168L208.695 60.432C208.755 60.24 208.869 60.084 209.037 59.964C209.205 59.832 209.403 59.766 209.631 59.766H212.043ZM222.603 59.478C223.935 59.478 225.135 59.7 226.203 60.144C227.271 60.588 228.183 61.218 228.939 62.034C229.695 62.85 230.271 63.84 230.667 65.004C231.075 66.156 231.279 67.446 231.279 68.874C231.279 70.314 231.075 71.61 230.667 72.762C230.271 73.914 229.695 74.898 228.939 75.714C228.183 76.53 227.271 77.16 226.203 77.604C225.135 78.036 223.935 78.252 222.603 78.252C221.259 78.252 220.047 78.036 218.967 77.604C217.899 77.16 216.987 76.53 216.231 75.714C215.475 74.898 214.893 73.914 214.485 72.762C214.089 71.61 213.891 70.314 213.891 68.874C213.891 67.446 214.089 66.156 214.485 65.004C214.893 63.84 215.475 62.85 216.231 62.034C216.987 61.218 217.899 60.588 218.967 60.144C220.047 59.7 221.259 59.478 222.603 59.478ZM222.603 75.75C224.403 75.75 225.747 75.15 226.635 73.95C227.523 72.738 227.967 71.052 227.967 68.892C227.967 66.72 227.523 65.028 226.635 63.816C225.747 62.604 224.403 61.998 222.603 61.998C221.691 61.998 220.893 62.154 220.209 62.466C219.537 62.778 218.973 63.228 218.517 63.816C218.073 64.404 217.737 65.13 217.509 65.994C217.293 66.846 217.185 67.812 217.185 68.892C217.185 71.052 217.629 72.738 218.517 73.95C219.417 75.15 220.779 75.75 222.603 75.75ZM238.367 62.412C238.763 61.968 239.183 61.566 239.627 61.206C240.071 60.846 240.539 60.54 241.031 60.288C241.535 60.024 242.063 59.826 242.615 59.694C243.179 59.55 243.785 59.478 244.433 59.478C245.429 59.478 246.305 59.646 247.061 59.982C247.829 60.306 248.465 60.774 248.969 61.386C249.485 61.986 249.875 62.712 250.139 63.564C250.403 64.416 250.535 65.358 250.535 66.39V78H247.313V66.39C247.313 65.01 246.995 63.942 246.359 63.186C245.735 62.418 244.781 62.034 243.497 62.034C242.549 62.034 241.661 62.262 240.833 62.718C240.017 63.174 239.261 63.792 238.565 64.572V78H235.343V59.766H237.269C237.725 59.766 238.007 59.988 238.115 60.432L238.367 62.412ZM257.068 50.478C257.572 51.33 257.914 52.23 258.094 53.178C258.274 54.126 258.292 55.062 258.148 55.986C258.004 56.91 257.704 57.798 257.248 58.65C256.792 59.502 256.186 60.258 255.43 60.918L254.458 60.288C254.278 60.18 254.194 60.042 254.206 59.874C254.23 59.694 254.29 59.55 254.386 59.442C254.698 59.058 254.962 58.596 255.178 58.056C255.406 57.504 255.55 56.916 255.61 56.292C255.682 55.656 255.652 55.002 255.52 54.33C255.4 53.658 255.154 53.01 254.782 52.386C254.626 52.134 254.578 51.912 254.638 51.72C254.71 51.516 254.86 51.366 255.088 51.27L257.068 50.478ZM268.152 78.288C266.712 78.288 265.602 77.886 264.822 77.082C264.054 76.278 263.67 75.12 263.67 73.608V62.448H261.474C261.282 62.448 261.12 62.394 260.988 62.286C260.856 62.166 260.79 61.986 260.79 61.746V60.468L263.778 60.09L264.516 54.456C264.552 54.276 264.63 54.132 264.75 54.024C264.882 53.904 265.05 53.844 265.254 53.844H266.874V60.126H272.148V62.448H266.874V73.392C266.874 74.16 267.06 74.73 267.432 75.102C267.804 75.474 268.284 75.66 268.872 75.66C269.208 75.66 269.496 75.618 269.736 75.534C269.988 75.438 270.204 75.336 270.384 75.228C270.564 75.12 270.714 75.024 270.834 74.94C270.966 74.844 271.08 74.796 271.176 74.796C271.344 74.796 271.494 74.898 271.626 75.102L272.562 76.632C272.01 77.148 271.344 77.556 270.564 77.856C269.784 78.144 268.98 78.288 268.152 78.288ZM290.265 78.288C288.825 78.288 287.715 77.886 286.935 77.082C286.167 76.278 285.783 75.12 285.783 73.608V62.448H283.587C283.395 62.448 283.233 62.394 283.101 62.286C282.969 62.166 282.903 61.986 282.903 61.746V60.468L285.891 60.09L286.629 54.456C286.665 54.276 286.743 54.132 286.863 54.024C286.995 53.904 287.163 53.844 287.367 53.844H288.987V60.126H294.261V62.448H288.987V73.392C288.987 74.16 289.173 74.73 289.545 75.102C289.917 75.474 290.397 75.66 290.985 75.66C291.321 75.66 291.609 75.618 291.849 75.534C292.101 75.438 292.317 75.336 292.497 75.228C292.677 75.12 292.827 75.024 292.947 74.94C293.079 74.844 293.193 74.796 293.289 74.796C293.457 74.796 293.607 74.898 293.739 75.102L294.675 76.632C294.123 77.148 293.457 77.556 292.677 77.856C291.897 78.144 291.093 78.288 290.265 78.288ZM307.451 69.792C305.975 69.84 304.715 69.96 303.671 70.152C302.639 70.332 301.793 70.572 301.133 70.872C300.485 71.172 300.011 71.526 299.711 71.934C299.423 72.342 299.279 72.798 299.279 73.302C299.279 73.782 299.357 74.196 299.513 74.544C299.669 74.892 299.879 75.18 300.143 75.408C300.419 75.624 300.737 75.786 301.097 75.894C301.469 75.99 301.865 76.038 302.285 76.038C302.849 76.038 303.365 75.984 303.833 75.876C304.301 75.756 304.739 75.588 305.147 75.372C305.567 75.156 305.963 74.898 306.335 74.598C306.719 74.298 307.091 73.956 307.451 73.572V69.792ZM297.101 62.34C298.109 61.368 299.195 60.642 300.359 60.162C301.523 59.682 302.813 59.442 304.229 59.442C305.249 59.442 306.155 59.61 306.947 59.946C307.739 60.282 308.405 60.75 308.945 61.35C309.485 61.95 309.893 62.676 310.169 63.528C310.445 64.38 310.583 65.316 310.583 66.336V78H309.161C308.849 78 308.609 77.952 308.441 77.856C308.273 77.748 308.141 77.544 308.045 77.244L307.685 75.516C307.205 75.96 306.737 76.356 306.281 76.704C305.825 77.04 305.345 77.328 304.841 77.568C304.337 77.796 303.797 77.97 303.221 78.09C302.657 78.222 302.027 78.288 301.331 78.288C300.623 78.288 299.957 78.192 299.333 78C298.709 77.796 298.163 77.496 297.695 77.1C297.239 76.704 296.873 76.206 296.597 75.606C296.333 74.994 296.201 74.274 296.201 73.446C296.201 72.726 296.399 72.036 296.795 71.376C297.191 70.704 297.833 70.11 298.721 69.594C299.609 69.078 300.767 68.658 302.195 68.334C303.623 67.998 305.375 67.806 307.451 67.758V66.336C307.451 64.92 307.145 63.852 306.533 63.132C305.921 62.4 305.027 62.034 303.851 62.034C303.059 62.034 302.393 62.136 301.853 62.34C301.325 62.532 300.863 62.754 300.467 63.006C300.083 63.246 299.747 63.468 299.459 63.672C299.183 63.864 298.907 63.96 298.631 63.96C298.415 63.96 298.229 63.906 298.073 63.798C297.917 63.678 297.785 63.534 297.677 63.366L297.101 62.34ZM318.686 51.486V67.092H319.514C319.754 67.092 319.952 67.062 320.108 67.002C320.276 66.93 320.45 66.792 320.63 66.588L326.39 60.414C326.558 60.21 326.732 60.054 326.912 59.946C327.104 59.826 327.356 59.766 327.668 59.766H330.566L323.852 66.912C323.528 67.32 323.18 67.638 322.808 67.866C323.024 68.01 323.216 68.178 323.384 68.37C323.564 68.55 323.732 68.76 323.888 69L331.016 78H328.154C327.878 78 327.638 77.958 327.434 77.874C327.242 77.778 327.074 77.61 326.93 77.37L320.936 69.9C320.756 69.648 320.576 69.486 320.396 69.414C320.228 69.33 319.964 69.288 319.604 69.288H318.686V78H315.464V51.486H318.686ZM344.93 66.894C344.93 66.15 344.822 65.472 344.606 64.86C344.402 64.236 344.096 63.702 343.688 63.258C343.292 62.802 342.806 62.454 342.23 62.214C341.654 61.962 341 61.836 340.268 61.836C338.732 61.836 337.514 62.286 336.614 63.186C335.726 64.074 335.174 65.31 334.958 66.894H344.93ZM347.522 75.444C347.126 75.924 346.652 76.344 346.1 76.704C345.548 77.052 344.954 77.34 344.318 77.568C343.694 77.796 343.046 77.964 342.374 78.072C341.702 78.192 341.036 78.252 340.376 78.252C339.116 78.252 337.952 78.042 336.884 77.622C335.828 77.19 334.91 76.566 334.13 75.75C333.362 74.922 332.762 73.902 332.33 72.69C331.898 71.478 331.682 70.086 331.682 68.514C331.682 67.242 331.874 66.054 332.258 64.95C332.654 63.846 333.218 62.892 333.95 62.088C334.682 61.272 335.576 60.636 336.632 60.18C337.688 59.712 338.876 59.478 340.196 59.478C341.288 59.478 342.296 59.664 343.22 60.036C344.156 60.396 344.96 60.924 345.632 61.62C346.316 62.304 346.85 63.156 347.234 64.176C347.618 65.184 347.81 66.336 347.81 67.632C347.81 68.136 347.756 68.472 347.648 68.64C347.54 68.808 347.336 68.892 347.036 68.892H334.85C334.886 70.044 335.042 71.046 335.318 71.898C335.606 72.75 336.002 73.464 336.506 74.04C337.01 74.604 337.61 75.03 338.306 75.318C339.002 75.594 339.782 75.732 340.646 75.732C341.45 75.732 342.14 75.642 342.716 75.462C343.304 75.27 343.808 75.066 344.228 74.85C344.648 74.634 344.996 74.436 345.272 74.256C345.56 74.064 345.806 73.968 346.01 73.968C346.274 73.968 346.478 74.07 346.622 74.274L347.522 75.444ZM5.85 94.486V121H2.646V94.486H5.85ZM18.7318 102.478C20.0638 102.478 21.2638 102.7 22.3318 103.144C23.3998 103.588 24.3118 104.218 25.0678 105.034C25.8238 105.85 26.3998 106.84 26.7958 108.004C27.2038 109.156 27.4078 110.446 27.4078 111.874C27.4078 113.314 27.2038 114.61 26.7958 115.762C26.3998 116.914 25.8238 117.898 25.0678 118.714C24.3118 119.53 23.3998 120.16 22.3318 120.604C21.2638 121.036 20.0638 121.252 18.7318 121.252C17.3878 121.252 16.1758 121.036 15.0958 120.604C14.0278 120.16 13.1158 119.53 12.3598 118.714C11.6038 117.898 11.0218 116.914 10.6138 115.762C10.2178 114.61 10.0198 113.314 10.0198 111.874C10.0198 110.446 10.2178 109.156 10.6138 108.004C11.0218 106.84 11.6038 105.85 12.3598 105.034C13.1158 104.218 14.0278 103.588 15.0958 103.144C16.1758 102.7 17.3878 102.478 18.7318 102.478ZM18.7318 118.75C20.5318 118.75 21.8758 118.15 22.7638 116.95C23.6518 115.738 24.0958 114.052 24.0958 111.892C24.0958 109.72 23.6518 108.028 22.7638 106.816C21.8758 105.604 20.5318 104.998 18.7318 104.998C17.8198 104.998 17.0218 105.154 16.3378 105.466C15.6658 105.778 15.1018 106.228 14.6458 106.816C14.2018 107.404 13.8658 108.13 13.6378 108.994C13.4218 109.846 13.3138 110.812 13.3138 111.892C13.3138 114.052 13.7578 115.738 14.6458 116.95C15.5458 118.15 16.9078 118.75 18.7318 118.75ZM34.4956 105.412C34.8916 104.968 35.3116 104.566 35.7556 104.206C36.1996 103.846 36.6676 103.54 37.1596 103.288C37.6636 103.024 38.1916 102.826 38.7436 102.694C39.3076 102.55 39.9136 102.478 40.5616 102.478C41.5576 102.478 42.4336 102.646 43.1896 102.982C43.9576 103.306 44.5936 103.774 45.0976 104.386C45.6136 104.986 46.0036 105.712 46.2676 106.564C46.5316 107.416 46.6636 108.358 46.6636 109.39V121H43.4416V109.39C43.4416 108.01 43.1236 106.942 42.4876 106.186C41.8636 105.418 40.9096 105.034 39.6256 105.034C38.6776 105.034 37.7896 105.262 36.9616 105.718C36.1456 106.174 35.3896 106.792 34.6936 107.572V121H31.4716V102.766H33.3976C33.8536 102.766 34.1356 102.988 34.2436 103.432L34.4956 105.412ZM57.8998 112.09C58.5478 112.09 59.1178 112 59.6098 111.82C60.1018 111.64 60.5158 111.388 60.8518 111.064C61.1878 110.74 61.4398 110.356 61.6078 109.912C61.7758 109.456 61.8598 108.958 61.8598 108.418C61.8598 107.302 61.5178 106.414 60.8338 105.754C60.1618 105.094 59.1838 104.764 57.8998 104.764C56.6038 104.764 55.6138 105.094 54.9298 105.754C54.2578 106.414 53.9218 107.302 53.9218 108.418C53.9218 108.958 54.0058 109.456 54.1738 109.912C54.3538 110.356 54.6118 110.74 54.9478 111.064C55.2838 111.388 55.6978 111.64 56.1898 111.82C56.6818 112 57.2518 112.09 57.8998 112.09ZM63.6778 121.99C63.6778 121.546 63.5518 121.186 63.2998 120.91C63.0478 120.634 62.7058 120.418 62.2738 120.262C61.8538 120.106 61.3618 119.998 60.7978 119.938C60.2338 119.866 59.6338 119.812 58.9978 119.776C58.3738 119.74 57.7378 119.704 57.0898 119.668C56.4418 119.632 55.8178 119.572 55.2178 119.488C54.5458 119.8 53.9938 120.196 53.5618 120.676C53.1418 121.144 52.9318 121.696 52.9318 122.332C52.9318 122.74 53.0338 123.118 53.2378 123.466C53.4538 123.826 53.7778 124.132 54.2098 124.384C54.6418 124.648 55.1818 124.852 55.8298 124.996C56.4898 125.152 57.2638 125.23 58.1518 125.23C59.0158 125.23 59.7898 125.152 60.4738 124.996C61.1578 124.84 61.7338 124.618 62.2018 124.33C62.6818 124.042 63.0478 123.7 63.2998 123.304C63.5518 122.908 63.6778 122.47 63.6778 121.99ZM66.9358 103.486V104.674C66.9358 105.07 66.6838 105.322 66.1798 105.43L64.1098 105.7C64.5178 106.492 64.7218 107.368 64.7218 108.328C64.7218 109.216 64.5478 110.026 64.1998 110.758C63.8638 111.478 63.3958 112.096 62.7958 112.612C62.1958 113.128 61.4758 113.524 60.6358 113.8C59.7958 114.076 58.8838 114.214 57.8998 114.214C57.0478 114.214 56.2438 114.112 55.4878 113.908C55.1038 114.148 54.8098 114.406 54.6058 114.682C54.4018 114.946 54.2998 115.216 54.2998 115.492C54.2998 115.924 54.4738 116.254 54.8218 116.482C55.1818 116.698 55.6498 116.854 56.2258 116.95C56.8018 117.046 57.4558 117.106 58.1878 117.13C58.9318 117.154 59.6878 117.196 60.4558 117.256C61.2358 117.304 61.9918 117.394 62.7238 117.526C63.4678 117.658 64.1278 117.874 64.7038 118.174C65.2798 118.474 65.7418 118.888 66.0898 119.416C66.4498 119.944 66.6298 120.628 66.6298 121.468C66.6298 122.248 66.4318 123.004 66.0358 123.736C65.6518 124.468 65.0938 125.116 64.3618 125.68C63.6298 126.256 62.7298 126.712 61.6618 127.048C60.6058 127.396 59.4118 127.57 58.0798 127.57C56.7478 127.57 55.5838 127.438 54.5878 127.174C53.5918 126.91 52.7638 126.556 52.1038 126.112C51.4438 125.668 50.9458 125.152 50.6098 124.564C50.2858 123.988 50.1238 123.382 50.1238 122.746C50.1238 121.846 50.4058 121.084 50.9698 120.46C51.5338 119.836 52.3078 119.338 53.2918 118.966C52.7518 118.726 52.3198 118.408 51.9958 118.012C51.6838 117.604 51.5278 117.058 51.5278 116.374C51.5278 116.11 51.5758 115.84 51.6718 115.564C51.7678 115.276 51.9118 114.994 52.1038 114.718C52.3078 114.43 52.5538 114.16 52.8418 113.908C53.1298 113.656 53.4658 113.434 53.8498 113.242C52.9498 112.738 52.2478 112.072 51.7438 111.244C51.2398 110.404 50.9878 109.432 50.9878 108.328C50.9878 107.44 51.1558 106.636 51.4918 105.916C51.8398 105.184 52.3198 104.566 52.9318 104.062C53.5438 103.546 54.2698 103.15 55.1098 102.874C55.9618 102.598 56.8918 102.46 57.8998 102.46C58.6918 102.46 59.4298 102.55 60.1138 102.73C60.7978 102.898 61.4218 103.15 61.9858 103.486H66.9358ZM74.1009 95.206V105.502C74.1009 106.042 74.0889 106.57 74.0649 107.086C74.0409 107.602 74.0109 108.124 73.9749 108.652C73.9389 109.168 73.8909 109.702 73.8309 110.254C73.7829 110.794 73.7229 111.376 73.6509 112H71.4909C71.4189 111.376 71.3529 110.794 71.2929 110.254C71.2449 109.702 71.2029 109.168 71.1669 108.652C71.1309 108.124 71.1009 107.602 71.0769 107.086C71.0529 106.57 71.0409 106.042 71.0409 105.502V95.206H74.1009ZM70.2669 119.02C70.2669 118.708 70.3209 118.414 70.4289 118.138C70.5489 117.862 70.7109 117.622 70.9149 117.418C71.1189 117.214 71.3529 117.052 71.6169 116.932C71.8929 116.812 72.1929 116.752 72.5169 116.752C72.8289 116.752 73.1169 116.812 73.3809 116.932C73.6569 117.052 73.8969 117.214 74.1009 117.418C74.3049 117.622 74.4669 117.862 74.5869 118.138C74.7069 118.414 74.7669 118.708 74.7669 119.02C74.7669 119.344 74.7069 119.644 74.5869 119.92C74.4669 120.184 74.3049 120.418 74.1009 120.622C73.8969 120.826 73.6569 120.982 73.3809 121.09C73.1169 121.21 72.8289 121.27 72.5169 121.27C72.1929 121.27 71.8929 121.21 71.6169 121.09C71.3529 120.982 71.1189 120.826 70.9149 120.622C70.7109 120.418 70.5489 120.184 70.4289 119.92C70.3209 119.644 70.2669 119.344 70.2669 119.02Z" fill="white"/>
<defs>
<clipPath id="clip0_111_2">
<rect width="353" height="483" fill="white" transform="matrix(-1 0 0 1 433 154)"/>
</clipPath>
</defs>
</svg>
